<?xml version="1.0" encoding="UTF-8" standalone="no"?>
<svg
   xmlns:dc="http://purl.org/dc/elements/1.1/"
   xmlns:cc="http://creativecommons.org/ns#"
   xmlns:rdf="http://www.w3.org/1999/02/22-rdf-syntax-ns#"
   xmlns:svg="http://www.w3.org/2000/svg"
   xmlns="http://www.w3.org/2000/svg"
   viewBox="0 0 54.7197 35.999699"
   id="svg2"
   height="50"
   width="76"
   version="1.1">
  <metadata
     id="metadata10">
    <rdf:RDF>
      <cc:Work
         rdf:about="">
        <dc:format>image/svg+xml</dc:format>
        <dc:type
           rdf:resource="http://purl.org/dc/dcmitype/StillImage" />
      </cc:Work>
    </rdf:RDF>
  </metadata>
  <defs
     id="defs8" />
  <path
     id="path4"
     style="fill:#b3b3b3;fill-rule:evenodd"
     d="m 24.3953,21.6972 c 0,3.6043 -2.9489,6.5532 -6.5532,6.5532 l -11.2977,0 c -3.6043,0 -6.5532,-2.9489 -6.5532,-6.5532 l 0,-15.1444 c 0,-3.6041 2.949,-6.5532 6.5532,-6.5532 l 4.4401,0 0,3.3563 -4.3036,0 c -1.802,0 -3.2765,1.4744 -3.2765,3.2765 0,4.9856 -0.0568,10.0126 -0.0568,14.9282 0,1.8022 1.4744,3.2766 3.2765,3.2766 l 11.1383,0 c 1.8022,0 3.2766,-1.4744 3.2766,-3.2766 l 0,-2.5484 c 0,-1.802 -1.4744,-3.2765 -3.2766,-3.2765 l -11.2861,0 0,-3.4132 11.3658,0 c 3.6041,0 6.5532,2.9489 6.5532,6.5532 l 0,2.8215 z m -21.3062,14.2127 -3.0979,0 0,-0.5557 L 1.17,34.169 c 0.3477,-0.3562 0.5781,-0.6081 0.6923,-0.7574 0.1131,-0.1494 0.1963,-0.2891 0.2487,-0.4203 0.0522,-0.1312 0.0777,-0.272 0.0777,-0.4224 0,-0.2059 -0.0618,-0.3692 -0.1856,-0.4875 -0.1237,-0.1185 -0.2955,-0.1782 -0.5141,-0.1782 -0.1749,0 -0.3446,0.0319 -0.5089,0.0971 -0.1632,0.064 -0.3519,0.1814 -0.5675,0.3498 L 0.0158,31.8659 C 0.2707,31.6515 0.5171,31.5 0.7572,31.4104 c 0.24,-0.0896 0.495,-0.1344 0.7658,-0.1344 0.4247,0 0.766,0.1109 1.022,0.3327 0.2571,0.222 0.3852,0.5207 0.3852,0.8951 0,0.207 -0.0374,0.4021 -0.111,0.5878 -0.0747,0.1856 -0.1877,0.3765 -0.3414,0.5739 -0.1535,0.1962 -0.4074,0.463 -0.7648,0.798 l -0.7937,0.769 0,0.031 2.1698,0 0,0.6464 z m 5.2973,-0.9984 -0.6166,0 0,0.9984 -0.7158,0 0,-0.9984 -2.0887,0 0,-0.5644 2.0887,-3.0199 0.7158,0 0,2.9762 0.6166,0 0,0.6081 z m -1.3324,-0.6081 0,-1.1478 c 0,-0.4087 0.0106,-0.7424 0.0309,-1.0038 l -0.0245,0 C 7.0016,32.2894 6.91,32.4569 6.7852,32.6521 l -1.1351,1.6513 1.4039,0 z m 7.5833,-0.6838 c 0,0.7447 -0.1867,1.3228 -0.5579,1.7357 -0.3723,0.4127 -0.8993,0.6187 -1.5799,0.6187 -0.6892,0 -1.2193,-0.2049 -1.5895,-0.6145 -0.369,-0.4096 -0.5547,-0.991 -0.5547,-1.7452 0,-0.7553 0.1867,-1.3345 0.558,-1.7388 0.3722,-0.4044 0.9024,-0.6059 1.5925,-0.6059 0.6786,0 1.2045,0.2048 1.5747,0.6155 0.3712,0.4107 0.5568,0.9888 0.5568,1.7345 z M 11.15,33.6185 c 0,0.5623 0.1131,0.989 0.3403,1.2791 0.2272,0.2912 0.5633,0.4363 1.0092,0.4363 0.4438,0 0.7787,-0.144 1.0049,-0.431 0.2251,-0.288 0.3381,-0.7158 0.3381,-1.2844 0,-0.56 -0.1119,-0.9846 -0.336,-1.2747 -0.2229,-0.2891 -0.5568,-0.4342 -1.0007,-0.4342 -0.4479,0 -0.7861,0.1451 -1.0144,0.4342 -0.2272,0.2901 -0.3414,0.7147 -0.3414,1.2747 z m 8.9733,-0.896 c 0,0.4769 -0.1557,0.8427 -0.4682,1.0966 -0.3127,0.2549 -0.7575,0.3819 -1.3346,0.3819 l -0.4747,0 0,1.7089 -0.7467,0 0,-4.5699 1.3153,0 c 0.5707,0 0.9985,0.1162 1.2823,0.3499 0.2848,0.2336 0.4266,0.5781 0.4266,1.0326 z m -2.2775,0.8513 0.3968,0 c 0.383,0 0.6646,-0.0672 0.8438,-0.2007 0.1782,-0.1332 0.2678,-0.3413 0.2678,-0.6251 0,-0.2623 -0.08,-0.4575 -0.24,-0.5867 -0.1601,-0.129 -0.4107,-0.1941 -0.75,-0.1941 l -0.5184,0 0,1.6066 z m 6.2498,2.3361 -0.7467,0 0,-3.9299 -1.3441,0 0,-0.64 3.435,0 0,0.64 -1.3442,0 0,3.9299 z m 3.5243,0 0,-4.5699 0.7467,0 0,4.5699 -0.7467,0 z m 6.9209,0 -0.8652,0 -1.4348,-2.0695 -0.4395,0.3595 0,1.71 -0.7478,0 0,-4.5699 0.7478,0 0,2.1815 c 0.2038,-0.2496 0.4064,-0.4908 0.6092,-0.7222 l 1.2331,-1.4593 0.8502,0 c -0.7979,0.9376 -1.3697,1.6055 -1.7153,2.0034 l 1.7623,2.5665 z m 4.9185,0 -0.4566,-1.2672 -1.7463,0 -0.447,1.2672 -0.7872,0 1.709,-4.5891 0.8129,0 1.7089,4.5891 -0.7937,0 z m -0.6529,-1.9136 -0.4277,-1.244 C 38.3466,32.6692 38.304,32.5379 38.2485,32.3587 38.193,32.1795 38.1557,32.0483 38.1343,31.964 c -0.0565,0.2571 -0.1386,0.5366 -0.2463,0.8416 l -0.4129,1.1907 1.3313,0 z m 3.344,1.5222 c 0,-0.1526 0.0395,-0.2689 0.1184,-0.351 0.0789,-0.0811 0.1942,-0.1216 0.3436,-0.1216 0.1525,0 0.2676,0.0427 0.3477,0.127 0.0789,0.0842 0.1183,0.1994 0.1183,0.3456 0,0.1472 -0.0405,0.2645 -0.1205,0.3509 -0.08,0.0864 -0.1952,0.1302 -0.3455,0.1302 -0.1494,0 -0.2647,-0.0427 -0.3436,-0.1281 -0.0789,-0.0852 -0.1184,-0.2037 -0.1184,-0.353 z m 4.1739,-2.0535 0.5185,0 c 0.3477,0 0.5995,-0.0641 0.7552,-0.1931 0.1569,-0.1291 0.2348,-0.3211 0.2348,-0.5739 0,-0.2582 -0.0843,-0.4438 -0.2529,-0.5559 -0.1685,-0.1119 -0.4235,-0.1685 -0.7627,-0.1685 l -0.4929,0 0,1.4914 z m 0,0.6208 0,1.8241 -0.7478,0 0,-4.5699 1.2907,0 c 0.59,0 1.0263,0.1109 1.309,0.3317 0.2838,0.2208 0.4257,0.5547 0.4257,1.0007 0,0.5685 -0.2966,0.975 -0.8876,1.216 l 1.2897,2.0215 -0.8502,0 -1.0923,-1.8241 -0.7372,0 z m 8.4048,-2.7458 0,2.9581 c 0,0.337 -0.0726,0.6326 -0.2177,0.8864 -0.1439,0.253 -0.3541,0.4481 -0.6272,0.5846 -0.2742,0.1366 -0.6017,0.2049 -0.9836,0.2049 -0.5664,0 -1.007,-0.1504 -1.3206,-0.4502 -0.3147,-0.3008 -0.4726,-0.7125 -0.4726,-1.2386 l 0,-2.9452 0.75,0 0,2.8909 c 0,0.3766 0.0874,0.6549 0.2624,0.8342 0.1749,0.1792 0.4437,0.2688 0.8065,0.2688 0.7039,0 1.056,-0.3701 1.056,-1.1094 l 0,-2.8845 0.7468,0 z M 30.325,21.6972 c 0,3.6043 2.9489,6.5532 6.5532,6.5532 l 11.2977,0 c 3.6043,0 6.5532,-2.9489 6.5532,-6.5532 l 0,-15.1444 C 54.7291,2.9487 51.78,-4e-4 48.1759,-4e-4 l -4.4401,0 0,3.3563 4.3035,0 c 1.8021,0 3.269,1.4744 3.2766,3.2765 0.021,4.9758 0.0568,9.9524 0.0568,14.9282 0,1.8022 -1.4744,3.2766 -3.2765,3.2766 l -11.1383,0 c -1.8022,0 -3.2766,-1.4744 -3.2766,-3.2766 l 0,-2.5484 c 0,-1.802 1.4744,-3.2765 3.2766,-3.2765 l 11.2861,0 0,-3.4132 -11.3658,0 c -3.6041,0 -6.5532,2.9489 -6.5532,6.5532 l 0,2.8215 z" />
</svg>
