<?xml version="1.0" encoding="UTF-8" standalone="no"?>
<svg
   xmlns:dc="http://purl.org/dc/elements/1.1/"
   xmlns:cc="http://creativecommons.org/ns#"
   xmlns:rdf="http://www.w3.org/1999/02/22-rdf-syntax-ns#"
   xmlns:svg="http://www.w3.org/2000/svg"
   xmlns="http://www.w3.org/2000/svg"
   viewBox="0 0 60.479698 35.999699"
   id="svg2"
   height="50"
   width="84"
   version="1.1">
  <metadata
     id="metadata52">
    <rdf:RDF>
      <cc:Work
         rdf:about="">
        <dc:format>image/svg+xml</dc:format>
        <dc:type
           rdf:resource="http://purl.org/dc/dcmitype/StillImage" />
      </cc:Work>
    </rdf:RDF>
  </metadata>
  <defs
     id="defs50" />
  <g
     id="Layer1000">
    <g
       id="Layer1001">
      <path
         id="path6"
         style="fill:#cccccc;fill-rule:evenodd"
         d="m 53.8292,-4e-4 0,36 6.5073,0 0,-36 -6.5073,0 z" />
      <path
         id="path8"
         style="fill:#e6e6e6;fill-rule:evenodd"
         d="m 53.8292,-4e-4 0,36 -0.6822,0 0,-36 0.6822,0 z" />
      <path
         id="path10"
         style="fill:#e0e0e0;fill-rule:evenodd"
         d="m 47.217,-4e-4 0,36 5.93,0 0,-36 -5.93,0 z" />
      <path
         id="path12"
         style="fill:#b3b3b3;fill-rule:evenodd"
         d="m 47.217,-4e-4 0,36 -2.5189,0 0,-36 2.5189,0 z" />
      <path
         id="path14"
         style="fill:#e0e0e0;fill-rule:evenodd"
         d="m 42.9661,-4e-4 0,36 1.732,0 0,-36 -1.732,0 z" />
      <path
         id="path16"
         style="fill:#e6e6e6;fill-rule:evenodd"
         d="m 42.9661,-4e-4 0,36 -0.8921,0 0,-36 0.8921,0 z" />
      <path
         id="path18"
         style="fill:#cccccc;fill-rule:evenodd"
         d="m 38.1381,-4e-4 0,36 3.9359,0 0,-36 -3.9359,0 z" />
      <path
         id="path20"
         style="fill:#e6e6e6;fill-rule:evenodd"
         d="m 38.1381,-4e-4 0,36 -5.5102,0 0,-36 5.5102,0 z" />
      <path
         id="path22"
         style="fill:#b3b3b3;fill-rule:evenodd"
         d="m 31.3684,-4e-4 0,36 1.2595,0 0,-36 -1.2595,0 z" />
      <path
         id="path24"
         style="fill:#cccccc;fill-rule:evenodd"
         d="m 31.3684,-4e-4 0,36 -8.7638,0 0,-36 8.7638,0 z" />
      <path
         id="path26"
         style="fill:#e6e6e6;fill-rule:evenodd"
         d="m 21.7124,-4e-4 0,36 0.8922,0 0,-36 -0.8922,0 z" />
      <path
         id="path28"
         style="fill:#b3b3b3;fill-rule:evenodd"
         d="m 21.7124,-4e-4 0,36 -3.4111,0 0,-36 3.4111,0 z" />
      <path
         id="path30"
         style="fill:#e0e0e0;fill-rule:evenodd"
         d="m 13.8407,-4e-4 0,36 4.4606,0 0,-36 -4.4606,0 z" />
      <path
         id="path32"
         style="fill:#b3b3b3;fill-rule:evenodd"
         d="m 13.8407,-4e-4 0,36 -2.2566,0 0,-36 2.2566,0 z" />
      <path
         id="path34"
         style="fill:#e0e0e0;fill-rule:evenodd"
         d="m 9.1702,-4e-4 0,36 2.4139,0 0,-36 -2.4139,0 z" />
      <path
         id="path36"
         style="fill:#cccccc;fill-rule:evenodd"
         d="m 9.1702,-4e-4 0,36 -5.3528,0 0,-36 5.3528,0 z" />
      <path
         id="path38"
         style="fill:#e6e6e6;fill-rule:evenodd"
         d="m 0.1439,-4e-4 0,36 3.6735,0 0,-36 -3.6735,0 z" />
      <path
         id="path40"
         style="fill:none"
         d="m 0.1439,2.7556 60.1926,0 0,21.4716 -60.1926,0 0,-21.4716 z" />
    </g>
    <path
       id="path42"
       style="fill:#b3b3b3;fill-rule:evenodd"
       d="m 0.1439,17.4743 60.1926,0 0,11.8984 -60.1926,0 0,-11.8984 z" />
    <path
       id="path44"
       style="fill:#ffffff;fill-rule:evenodd"
       d="m 2.8713,26.723 0,-7.5084 4.1476,0 0,1.556 -2.6767,0 0,1.556 2.323,0 0,1.556 -2.323,0 0,2.8404 -1.4709,0 z m 4.6728,0 0,-5.5451 1.3437,0 0,0.9712 c 0.1486,-0.3812 0.3348,-0.6597 0.5573,-0.8337 0.2223,-0.1758 0.505,-0.2663 0.8479,-0.2733 l 0,1.7962 C 10.2328,22.8279 10.1739,22.8192 10.1149,22.8139 10.0559,22.8087 9.9996,22.807 9.9474,22.807 c -0.2143,0 -0.3911,0.0418 -0.5319,0.1253 -0.1406,0.0835 -0.2518,0.2106 -0.3361,0.3846 -0.0523,0.1149 -0.0898,0.282 -0.1113,0.4978 -0.0228,0.2158 -0.0335,0.5639 -0.0335,1.0477 l 0,1.8606 -1.3905,0 z m 4.5415,-3.3626 1.5902,-0.0052 c -0.0054,-0.355 -0.0777,-0.6335 -0.2184,-0.8337 -0.1393,-0.2001 -0.3309,-0.2993 -0.5747,-0.2993 -0.2304,0 -0.414,0.0975 -0.552,0.2941 -0.1379,0.1967 -0.2197,0.4787 -0.2451,0.8441 z m 1.5192,1.6187 1.3423,0 c -0.1259,0.6074 -0.3724,1.0791 -0.7395,1.4115 -0.3671,0.3324 -0.8239,0.4995 -1.3678,0.4995 -0.6618,0 -1.1843,-0.2611 -1.5688,-0.7832 -0.3844,-0.5222 -0.5773,-1.2323 -0.5773,-2.1338 0,-0.9172 0.1942,-1.6448 0.5814,-2.1808 0.3872,-0.5344 0.9083,-0.8024 1.5647,-0.8024 0.6779,0 1.2098,0.2715 1.5969,0.8163 0.3872,0.5448 0.5814,1.2966 0.5814,2.2556 0,0.0888 0,0.1567 -0.0013,0.2019 -0.0014,0.0453 -0.004,0.0854 -0.0067,0.1202 l -2.8857,0 c 0,0.3898 0.0643,0.6874 0.1943,0.8928 0.1299,0.2054 0.3202,0.308 0.572,0.308 0.1849,0 0.3389,-0.0504 0.4595,-0.1531 0.1206,-0.1009 0.205,-0.2524 0.2546,-0.4525 z m 1.9291,0.0522 1.3986,0 c 0.0161,0.2437 0.0857,0.4264 0.2104,0.5483 0.1245,0.1218 0.3041,0.1827 0.5398,0.1827 0.1969,0 0.351,-0.0487 0.4636,-0.1479 0.1125,-0.0975 0.1688,-0.2298 0.1688,-0.3969 0,-0.2123 -0.2198,-0.3933 -0.6605,-0.5395 -0.2358,-0.0766 -0.426,-0.1462 -0.5694,-0.2071 -0.5345,-0.2281 -0.9002,-0.4665 -1.0958,-0.7119 -0.1969,-0.2471 -0.2948,-0.5708 -0.2948,-0.9729 0,-0.5622 0.1649,-1.0025 0.4944,-1.3245 0.3296,-0.322 0.7837,-0.4821 1.3624,-0.4821 0.6176,0 1.0932,0.1375 1.4281,0.4107 0.335,0.275 0.5238,0.684 0.5654,1.2288 l -1.3423,0 c -0.0282,-0.188 -0.0939,-0.3272 -0.1957,-0.4177 -0.1018,-0.0905 -0.2438,-0.1358 -0.4247,-0.1358 -0.166,0 -0.296,0.0418 -0.3858,0.1253 -0.0897,0.0836 -0.1353,0.2019 -0.1353,0.3551 0,0.2175 0.2278,0.4073 0.6819,0.5674 0.1099,0.0383 0.1956,0.0679 0.2559,0.0922 0.4233,0.1602 0.7181,0.2785 0.8829,0.3586 0.1647,0.08 0.284,0.1566 0.3563,0.2279 0.154,0.1462 0.2679,0.3151 0.3416,0.51 0.0737,0.1933 0.1099,0.4195 0.1099,0.6771 0,0.6022 -0.1809,1.0721 -0.5413,1.4115 -0.3617,0.3394 -0.8654,0.51 -1.5111,0.51 -0.6337,0 -1.1334,-0.1636 -1.4991,-0.4891 -0.3658,-0.3255 -0.568,-0.7867 -0.6042,-1.3802 z m 4.9179,1.6917 0,-7.5084 1.3986,0 0,2.6856 c 0.1621,-0.2994 0.3497,-0.5205 0.5614,-0.6597 0.2116,-0.1392 0.4621,-0.2088 0.7502,-0.2088 0.4475,0 0.7877,0.1601 1.0221,0.4804 0.2345,0.3184 0.351,0.7849 0.351,1.3976 l 0,3.8133 -1.3986,0 0,-2.7882 c 0,-0.6527 -0.0415,-1.0687 -0.1259,-1.2462 -0.083,-0.1793 -0.2372,-0.268 -0.4622,-0.268 -0.2452,0 -0.4247,0.1061 -0.5372,0.3185 -0.1125,0.2124 -0.1688,0.5517 -0.1688,1.0164 l 0,2.9675 -1.3906,0 z m 5.1042,0 0,-7.5084 2.0337,0 0.7622,3.655 c 0.067,0.322 0.1286,0.637 0.1835,0.9399 0.055,0.3046 0.1032,0.6004 0.1461,0.8894 0.0495,-0.3046 0.1058,-0.6249 0.1687,-0.9608 0.063,-0.3341 0.134,-0.6944 0.2158,-1.0773 l 0.718,-3.4462 2.0336,0 0,7.5084 -1.3504,0 0,-3.3278 c 0,-0.2349 0.0041,-0.5639 0.0135,-0.9868 0.0094,-0.4229 0.0227,-0.912 0.0415,-1.4655 l -1.1106,5.7801 -1.4683,0 -1.0879,-5.7801 c 0.0188,0.6649 0.0322,1.2654 0.0429,1.7962 0.0108,0.5326 0.0161,0.9468 0.0161,1.2462 l 0,2.7377 -1.3584,0 z m 8.4802,-3.3626 1.5901,-0.0052 c -0.0053,-0.355 -0.0777,-0.6335 -0.2183,-0.8337 -0.1393,-0.2001 -0.3309,-0.2993 -0.5747,-0.2993 -0.2304,0 -0.414,0.0975 -0.552,0.2941 -0.138,0.1967 -0.2197,0.4787 -0.2451,0.8441 z m 1.5191,1.6187 1.3424,0 c -0.1259,0.6074 -0.3724,1.0791 -0.7395,1.4115 -0.367,0.3324 -0.8239,0.4995 -1.3678,0.4995 -0.6618,0 -1.1843,-0.2611 -1.5688,-0.7832 -0.3845,-0.5222 -0.5774,-1.2323 -0.5774,-2.1338 0,-0.9172 0.1943,-1.6448 0.5814,-2.1808 0.3872,-0.5344 0.9083,-0.8024 1.5648,-0.8024 0.6778,0 1.2097,0.2715 1.5969,0.8163 0.3871,0.5448 0.5814,1.2966 0.5814,2.2556 0,0.0888 0,0.1567 -0.0014,0.2019 -0.0013,0.0453 -0.0039,0.0854 -0.0066,0.1202 l -2.8857,0 c 0,0.3898 0.0643,0.6874 0.1943,0.8928 0.1299,0.2054 0.3201,0.308 0.572,0.308 0.1849,0 0.3389,-0.0504 0.4595,-0.1531 0.1206,-0.1009 0.205,-0.2524 0.2545,-0.4525 z m 2.1301,1.7439 0,-5.5451 1.3423,0 0,0.7623 c 0.1421,-0.3028 0.3162,-0.5291 0.5239,-0.677 0.209,-0.148 0.4582,-0.2211 0.7489,-0.2211 0.3081,0 0.564,0.0731 0.7662,0.2211 0.2037,0.1479 0.3564,0.3742 0.4622,0.677 0.1381,-0.2994 0.3135,-0.5239 0.5265,-0.6736 0.2144,-0.1496 0.4649,-0.2245 0.7516,-0.2245 0.4582,0 0.8038,0.1654 1.0383,0.4943 0.2343,0.3307 0.3509,0.8198 0.3509,1.4707 l 0,3.7159 -1.3664,0 0,-3.1659 c 0,-0.4212 -0.0469,-0.7153 -0.1394,-0.8842 -0.0924,-0.1688 -0.2505,-0.2523 -0.4715,-0.2523 -0.2251,0 -0.3912,0.1079 -0.4984,0.3254 -0.1071,0.2176 -0.1607,0.5553 -0.1607,1.0095 l 0,2.9675 -1.2379,0 0,-3.1659 c 0,-0.4212 -0.0469,-0.7153 -0.1393,-0.8842 -0.0924,-0.1688 -0.2505,-0.2523 -0.4716,-0.2523 -0.225,0 -0.3912,0.1079 -0.4983,0.3254 -0.1072,0.2176 -0.1608,0.5553 -0.1608,1.0095 l 0,2.9675 -1.3665,0 z m 8.6396,-2.7778 c 0,0.5065 0.0723,0.8964 0.2157,1.1679 0.1446,0.2733 0.3483,0.409 0.6122,0.409 0.2666,0 0.4729,-0.1375 0.6176,-0.4108 0.146,-0.2732 0.2184,-0.6631 0.2184,-1.1661 0,-0.4995 -0.0724,-0.8859 -0.2184,-1.1574 -0.1447,-0.2732 -0.351,-0.409 -0.6176,-0.409 -0.2666,0 -0.4716,0.1358 -0.6136,0.4055 -0.1433,0.2698 -0.2143,0.6579 -0.2143,1.1609 z m -1.4308,-0.0034 c 0,-0.9277 0.1996,-1.6535 0.6002,-2.1774 0.3992,-0.5239 0.9525,-0.7849 1.6585,-0.7849 0.7087,0 1.2633,0.261 1.6652,0.7849 0.4006,0.5239 0.6015,1.2497 0.6015,2.1774 0,0.9294 -0.2009,1.6551 -0.6015,2.1808 -0.4019,0.5256 -0.9565,0.7884 -1.6652,0.7884 -0.7113,0 -1.2647,-0.2611 -1.6625,-0.785 -0.3979,-0.5238 -0.5962,-1.2514 -0.5962,-2.1842 z m 5.265,2.7812 0,-5.5451 1.3437,0 0,0.9712 c 0.1487,-0.3812 0.3348,-0.6597 0.5573,-0.8337 0.2223,-0.1758 0.505,-0.2663 0.8479,-0.2733 l 0,1.7962 C 52.8479,22.8279 52.7889,22.8192 52.73,22.8139 52.671,22.8087 52.6148,22.807 52.5625,22.807 c -0.2143,0 -0.3911,0.0418 -0.5319,0.1253 -0.1406,0.0835 -0.2518,0.2106 -0.3361,0.3846 -0.0523,0.1149 -0.0898,0.282 -0.1113,0.4978 -0.0227,0.2158 -0.0335,0.5639 -0.0335,1.0477 l 0,1.8606 -1.3905,0 z m 5.7458,0.6162 c -0.1433,0.5169 -0.2665,0.8772 -0.3684,1.0773 -0.1031,0.2019 -0.221,0.3412 -0.3536,0.4195 -0.0992,0.0539 -0.2211,0.0939 -0.3631,0.1166 -0.1433,0.0243 -0.3952,0.0365 -0.7556,0.0365 l -0.3697,0 0,-1.4411 0.2706,0 c 0.2599,0 0.4367,-0.0417 0.5318,-0.1271 0.0965,-0.0852 0.1434,-0.2314 0.1434,-0.4386 0,-0.1392 -0.0643,-0.4246 -0.1916,-0.8527 l -0.016,-0.0453 -1.4376,-4.9064 1.5045,0 0.8012,3.7803 0.8198,-3.7803 1.4884,0 -1.7041,6.1613 z" />
    <path
       id="path46"
       style="fill:#ffffff;fill-opacity:0;fill-rule:evenodd"
       d="m 60.3365,-4e-4 -60.1926,0 0,9.1167 c 16.8113,4.2951 37.2355,6.3454 60.1926,6.8222 l 0,-15.9389 z" />
  </g>
</svg>
