<?xml version="1.0" encoding="UTF-8" standalone="no"?>
<svg
   xmlns:dc="http://purl.org/dc/elements/1.1/"
   xmlns:cc="http://creativecommons.org/ns#"
   xmlns:rdf="http://www.w3.org/1999/02/22-rdf-syntax-ns#"
   xmlns:svg="http://www.w3.org/2000/svg"
   xmlns="http://www.w3.org/2000/svg"
   viewBox="0 0 34.5597 34.5597"
   id="svg14"
   height="48"
   width="48"
   version="1.1">
  <metadata
     id="metadata20">
    <rdf:RDF>
      <cc:Work
         rdf:about="">
        <dc:format>image/svg+xml</dc:format>
        <dc:type
           rdf:resource="http://purl.org/dc/dcmitype/StillImage" />
      </cc:Work>
    </rdf:RDF>
  </metadata>
  <defs
     id="defs18" />
  <g
     id="Layer1000">
    <path
       id="path2"
       style="fill:#b5ea7b;fill-rule:evenodd"
       d="M -0.0449,-0.0455 V 34.6046 H 34.6052 V -0.0455 Z" />
    <g
       id="Layer1001">
      <path
         id="path4"
         style="fill:none;stroke:#74aa35;stroke-width:0.6293;stroke-linecap:round;stroke-linejoin:round;stroke-dasharray:none"
         d="m 27.5163,17.253 c 0,0 -3.7959,-6.3549 -10.2361,-6.3549 -6.4402,0 -10.236,6.3549 -10.236,6.3549 0,0 3.7958,6.3549 10.236,6.3549 6.4402,0 10.2361,-6.3549 10.2361,-6.3549 z" />
      <path
         id="path6"
         style="fill:none;stroke:#74aa35;stroke-width:0.6293;stroke-linecap:round;stroke-linejoin:round;stroke-dasharray:none"
         d="m 21.5026,17.253 c 0,-2.332 -1.8904,-4.2224 -4.2224,-4.2224 -2.3319,0 -4.2224,1.8904 -4.2224,4.2224 0,2.3319 1.8905,4.2224 4.2224,4.2224 2.332,0 4.2224,-1.8905 4.2224,-4.2224 z" />
      <path
         id="path8"
         style="fill:none;stroke:#74aa35;stroke-width:0.6293;stroke-linecap:round;stroke-linejoin:round;stroke-dasharray:none"
         d="m 18.6024,17.253 c 0,-0.7302 -0.592,-1.3222 -1.3222,-1.3222 -0.7302,0 -1.3221,0.592 -1.3221,1.3222 0,0.7302 0.5919,1.3221 1.3221,1.3221 0.7302,0 1.3222,-0.5919 1.3222,-1.3221 z" />
      <path
         id="path10"
         style="fill:none;stroke:#74aa35;stroke-width:0.6293;stroke-linecap:round;stroke-linejoin:round;stroke-dasharray:none"
         d="m 11.082,23.434 -3.0725,3.0725 m 15.411,-15.411 3.1132,-3.1132 M 11.082,11.0955 7.9979,8.0114 m 9.2534,1.3037 V 4.907 m 6.1692,18.527 3.1013,3.1013 M 17.2513,25.268 v 4.3848" />
    </g>
  </g>
</svg>
