<?xml version="1.0" encoding="UTF-8" standalone="no"?>
<svg
   xmlns:dc="http://purl.org/dc/elements/1.1/"
   xmlns:cc="http://creativecommons.org/ns#"
   xmlns:rdf="http://www.w3.org/1999/02/22-rdf-syntax-ns#"
   xmlns:svg="http://www.w3.org/2000/svg"
   xmlns="http://www.w3.org/2000/svg"
   viewBox="0 0 30.2397 32.3997"
   id="svg7"
   height="45"
   width="42"
   version="1.1">
  <metadata
     id="metadata13">
    <rdf:RDF>
      <cc:Work
         rdf:about="">
        <dc:format>image/svg+xml</dc:format>
        <dc:type
           rdf:resource="http://purl.org/dc/dcmitype/StillImage" />
      </cc:Work>
    </rdf:RDF>
  </metadata>
  <defs
     id="defs11" />
  <g
     id="Layer1000">
    <path
       id="path2"
       style="fill:#395671;fill-rule:evenodd"
       d="m 29.1493,8.0997 c 0.4988,0.8572 0.9355,2.3399 0.9355,3.7798 l 3e-4,8.6399 c 0,1.4394 -0.4426,2.9195 -0.9358,3.78 -0.4928,0.8603 -1.5587,1.98 -2.8057,2.6999 l -7.4822,4.3201 c -1.2463,0.7197 -2.7499,1.0766 -3.741,1.0799 -0.9916,0.0031 -2.4945,-0.3599 -3.7415,-1.0799 L 3.8967,26.9996 C 2.6502,26.2802 1.5894,25.1566 1.091,24.2994 0.5922,23.4423 0.1555,21.9595 0.1555,20.5197 l -3e-4,-8.64 c 0,-1.4393 0.4426,-2.9195 0.9358,-3.78 C 1.5838,7.2395 2.6497,6.1198 3.8967,5.3998 l 7.4822,-4.3201 c 1.2462,-0.7196 2.7499,-1.0766 3.741,-1.0799 0.9916,-0.003 2.4945,0.36 3.7415,1.0799 l 7.4822,4.3199 c 1.2465,0.7194 2.3072,1.8429 2.8057,2.7001 z" />
    <path
       id="path4"
       style="fill:#6183a2;fill-rule:evenodd"
       d="m 13.8132,19.5539 -1.8536,-1.4924 c -0.5929,-0.4773 -1.4685,-0.3828 -1.9458,0.2101 l -10e-5,10e-5 c -0.5382,0.5382 -0.3828,1.4686 0.2101,1.9459 l 2.9316,2.3604 c 0.5929,0.4774 1.4685,0.3828 1.9459,-0.2101 l 3.3043,-4.1039 3.9845,-4.9487 c 0.4774,-0.5929 0.3281,-1.4076 -0.2101,-1.9459 l -10e-5,-10e-5 c -0.5381,-0.5383 -1.4686,-0.3827 -1.9458,0.2101 z" />
  </g>
</svg>
