<?xml version="1.0" encoding="UTF-8" standalone="no"?>
<svg
   xmlns:dc="http://purl.org/dc/elements/1.1/"
   xmlns:cc="http://creativecommons.org/ns#"
   xmlns:rdf="http://www.w3.org/1999/02/22-rdf-syntax-ns#"
   xmlns:svg="http://www.w3.org/2000/svg"
   xmlns="http://www.w3.org/2000/svg"
   viewBox="0 0 34.5597 34.5597"
   id="svg16"
   height="48"
   width="48"
   version="1.1">
  <metadata
     id="metadata22">
    <rdf:RDF>
      <cc:Work
         rdf:about="">
        <dc:format>image/svg+xml</dc:format>
        <dc:type
           rdf:resource="http://purl.org/dc/dcmitype/StillImage" />
      </cc:Work>
    </rdf:RDF>
  </metadata>
  <defs
     id="defs20" />
  <path
     id="path2"
     style="fill:#b5ea7b;fill-rule:evenodd"
     d="M -0.0449,-0.0455 V 34.6046 H 34.6052 V -0.0455 Z" />
  <path
     id="path4"
     style="fill:none;stroke:#74aa35;stroke-width:0.6293;stroke-linecap:round;stroke-linejoin:round;stroke-dasharray:none"
     d="m 19.1737,15.6275 c 0,-1.0457 -0.8476,-1.8932 -1.8933,-1.8932 -0.5876,0 -1.1129,0.2676 -1.4601,0.6877 -0.2707,0.3274 -0.4334,0.7475 -0.4334,1.2055 0,1.046 0.8478,1.8936 1.8935,1.8936 0.9408,0 1.7215,-0.6863 1.8683,-1.5857 0.0165,-0.1004 0.025,-0.203 0.025,-0.3079 z" />
  <path
     id="path6"
     style="fill:none;stroke:#74aa35;stroke-width:0.6293;stroke-linecap:round;stroke-linejoin:round;stroke-dasharray:none"
     d="m 17.2804,21.576 h -4.0215 v -0.4189 c 0,-1.1699 0.4686,-2.1799 1.2869,-2.935 0.1752,-0.1619 0.3666,-0.3121 0.5729,-0.4496 0.4862,0.6701 1.2736,1.1058 2.1617,1.1058 0.8881,0 1.6756,-0.4357 2.1614,-1.1058 1.1691,0.7793 1.8601,1.9639 1.8601,3.3846 v 0.1412 0.2777 z" />
  <path
     id="path8"
     style="fill:none;stroke:#74aa35;stroke-width:0.6293;stroke-linecap:round;stroke-linejoin:round;stroke-dasharray:none"
     d="m 28.2017,20.0578 c 0.2396,-0.9102 0.3354,-1.8204 0.3354,-2.7782 0,-6.2272 -5.0298,-11.2567 -11.2567,-11.2567 -3.8321,0 -7.2331,1.916 -9.2928,4.8379" />
  <path
     id="path10"
     style="fill:none;stroke:#74aa35;stroke-width:0.6293;stroke-linecap:round;stroke-linejoin:round;stroke-dasharray:none"
     d="m 6.3591,14.5013 c -0.2395,0.91 -0.3353,1.8202 -0.3353,2.7783 0,6.2268 5.0295,11.2566 11.2566,11.2566 3.8319,0 7.2329,-1.9162 9.2926,-4.8381" />
  <path
     id="path12"
     style="fill:none;stroke:#74aa35;stroke-width:0.6293;stroke-linecap:round;stroke-linejoin:round;stroke-dasharray:none"
     d="m 7.9876,5.5439 v 5.3169 h 5.3649" />
  <path
     id="path14"
     style="fill:none;stroke:#74aa35;stroke-width:0.6293;stroke-linecap:round;stroke-linejoin:round;stroke-dasharray:none"
     d="M 26.573,29.015 V 23.6981 H 21.2081" />
</svg>
