<?xml version="1.0" encoding="UTF-8" standalone="no"?>
<svg
   xmlns:dc="http://purl.org/dc/elements/1.1/"
   xmlns:cc="http://creativecommons.org/ns#"
   xmlns:rdf="http://www.w3.org/1999/02/22-rdf-syntax-ns#"
   xmlns:svg="http://www.w3.org/2000/svg"
   xmlns="http://www.w3.org/2000/svg"
   viewBox="0 0 110.8797 25.919701"
   id="svg2"
   height="36"
   width="154"
   version="1.1">
  <metadata
     id="metadata14">
    <rdf:RDF>
      <cc:Work
         rdf:about="">
        <dc:format>image/svg+xml</dc:format>
        <dc:type
           rdf:resource="http://purl.org/dc/dcmitype/StillImage" />
      </cc:Work>
    </rdf:RDF>
  </metadata>
  <defs
     id="defs12" />
  <path
     id="path4"
     style="fill:#2d3f51;fill-rule:evenodd"
     d="m 5.7458,7.2572 -5.4669,0 0,-5.4669 5.4669,0 0,5.4669 z m 18.7567,18.6624 -5.467,0 0,-5.4672 5.467,0 0,5.4672 z m -6.221,0 -5.4668,0 0,-5.4672 5.4668,0 0,5.4672 z m -6.3148,0 -5.4669,0 0,-5.4672 5.4669,0 0,5.4672 z m -6.2209,0 -5.4669,0 0,-5.4672 5.4669,0 0,5.4672 z m 18.7567,-6.2209 -5.467,0 0,-5.4667 5.467,0 0,5.4667 z m -6.221,0 -5.4668,0 0,-5.4667 5.4668,0 0,5.4667 z m -6.3148,0 -5.4669,0 0,-5.4667 5.4669,0 0,5.4667 z m -6.2209,0 -5.4669,0 0,-5.4667 5.4669,0 0,5.4667 z m 6.2209,-6.2207 -5.4669,0 0,-5.4668 5.4669,0 0,5.4668 z m -6.2209,0 -5.4669,0 0,-5.4668 5.4669,0 0,5.4668 z m 20.4532,-1.6967 -5.4669,0 0,-5.4669 5.4669,0 0,5.4669 z m -6.2209,0 -5.4669,0 0,-5.4669 5.4669,0 0,5.4669 z m 6.2209,-6.3149 -5.4669,0 0,-5.4669 5.4669,0 0,5.4669 z m -6.2209,0 -5.4669,0 0,-5.4669 5.4669,0 0,5.4669 z m -8.0114,1.7908 -5.4669,0 0,-5.4669 5.4669,0 0,5.4669 z" />
  <path
     id="path6"
     style="fill:#2d3f51;fill-rule:evenodd"
     d="m 35.3039,13.7709 c 0,-0.8 -0.0478,-1.4643 -0.1428,-1.9929 C 35.0655,11.2495 34.9346,10.833 34.7682,10.5282 34.6014,10.2235 34.399,10.0091 34.161,9.8855 33.9228,9.7616 33.6611,9.6994 33.3753,9.6994 l -0.7857,0 0,8.1429 0.7857,0 c 0.2858,0 0.5475,-0.0618 0.7857,-0.186 0.238,-0.1237 0.4404,-0.3378 0.6072,-0.6427 0.1664,-0.3046 0.2973,-0.7213 0.3929,-1.2499 0.095,-0.5285 0.1428,-1.1928 0.1428,-1.9928 z m 29.656,-4.9999 1.714,0 0,9.9998 -1.714,0 0,-9.9998 z m -3.6428,6.5713 -0.7856,0 c -0.1237,0 -0.2499,0.0193 -0.3786,0.0572 -0.1286,0.038 -0.2428,0.1071 -0.3428,0.2071 -0.1,0.1001 -0.1835,0.2333 -0.2501,0.4 -0.0666,0.1665 -0.1,0.3736 -0.1,0.6215 0,0.2476 0.0334,0.4546 0.1,0.6213 0.0666,0.1666 0.1501,0.3001 0.2501,0.3999 0.1,0.1003 0.2142,0.1694 0.3428,0.2071 0.1287,0.0385 0.2549,0.0573 0.3786,0.0573 0.1809,0 0.3379,-0.0284 0.4715,-0.0857 0.1331,-0.057 0.2377,-0.1237 0.3141,-0.2001 l 0,-2.2856 z m -1.357,3.5712 c -0.3048,0 -0.5906,-0.0309 -0.8573,-0.0927 -0.2666,-0.0619 -0.4999,-0.1787 -0.6997,-0.3499 -0.2001,-0.1717 -0.3597,-0.4049 -0.4788,-0.6999 -0.1191,-0.2951 -0.1785,-0.6765 -0.1785,-1.1429 0,-0.4667 0.0594,-0.8475 0.1785,-1.1431 0.1191,-0.2949 0.2833,-0.5283 0.4929,-0.6997 0.2094,-0.1715 0.4571,-0.2881 0.7429,-0.3501 0.2858,-0.0619 0.6,-0.093 0.943,-0.093 0.2187,0 0.4306,0.0145 0.6354,0.0429 0.2049,0.0287 0.3976,0.0621 0.5786,0.1001 l 0,-0.5716 c 0,-0.5713 -0.1332,-0.952 -0.3998,-1.1425 -0.2667,-0.1906 -0.6334,-0.2858 -1.1002,-0.2858 l -1.4284,0 0,-0.7143 c 0.219,-0.0762 0.4879,-0.1427 0.8071,-0.2001 0.319,-0.057 0.6213,-0.0857 0.9073,-0.0857 0.4856,0 0.9091,0.0337 1.2713,0.1 0.3617,0.0667 0.6665,0.1883 0.9141,0.3642 0.2479,0.1765 0.4333,0.424 0.5572,0.743 0.1237,0.3192 0.1858,0.7264 0.1858,1.2212 l 0,4.8572 -1.2145,0 -0.2141,-0.4286 -0.0714,0 c -0.1526,0.1428 -0.3526,0.2739 -0.5999,0.3929 -0.2479,0.1189 -0.5716,0.1784 -0.9715,0.1784 z m -5.0855,-6.0711 0,3.6429 c 0,0.2854 0.0283,0.5212 0.0857,0.7069 0.057,0.1856 0.1307,0.3311 0.2214,0.4359 0.0905,0.1048 0.1903,0.1782 0.3001,0.2212 0.1093,0.0429 0.2164,0.0643 0.3212,0.0643 l 1.2858,0 0,0.7143 c -0.0859,0.038 -0.198,0.0739 -0.3357,0.1071 -0.1383,0.0337 -0.2858,0.0643 -0.4429,0.093 -0.1571,0.0284 -0.3167,0.05 -0.4786,0.0643 -0.162,0.0141 -0.3141,0.0214 -0.4571,0.0214 -0.3049,0 -0.5907,-0.0334 -0.8571,-0.1001 -0.2666,-0.0663 -0.5002,-0.188 -0.7,-0.3644 -0.2,-0.176 -0.3597,-0.4213 -0.4785,-0.7357 -0.1191,-0.3142 -0.1787,-0.7235 -0.1787,-1.2282 l 0,-3.6429 -0.7857,0 0,-1.0715 0.7857,0 0,-1.7141 1.7144,0 0,1.7141 1.9285,0 0,0.7857 c -0.2192,0.0765 -0.4929,0.143 -0.8214,0.2001 -0.3287,0.057 -0.6739,0.0857 -1.0358,0.0857 l -0.0713,0 z m -3.7857,5.9284 -1.7141,0 0,-7.1425 1.7141,0 0,7.1425 z m 0,-7.9999 -1.7141,0 0,-1.7144 1.7141,0 0,1.7144 z m -5.3568,1.7144 -0.6429,0 c -0.2193,0 -0.4143,0.0407 -0.5857,0.1214 -0.1714,0.0811 -0.3214,0.2239 -0.4501,0.4284 -0.1285,0.2049 -0.2262,0.4836 -0.2928,0.8357 -0.0667,0.3527 -0.1001,0.7953 -0.1001,1.3286 0,0.5334 0.0334,0.9762 0.1001,1.3283 0.0666,0.3527 0.1573,0.6312 0.2714,0.836 0.1144,0.2048 0.2501,0.3476 0.4072,0.4286 0.1571,0.0809 0.3262,0.1214 0.5072,0.1214 0.1807,0 0.3378,-0.0285 0.4715,-0.0857 0.1332,-0.0571 0.2377,-0.1237 0.3142,-0.2002 l 0,-5.1425 z m 0,6.0713 c -0.1428,0.1048 -0.3193,0.1907 -0.5286,0.2571 -0.2096,0.0666 -0.4381,0.1 -0.6857,0.1 -0.3905,0 -0.7452,-0.0669 -1.0642,-0.2001 -0.3191,-0.1334 -0.5908,-0.3475 -0.8143,-0.6429 -0.2239,-0.295 -0.3954,-0.6783 -0.5145,-1.1498 -0.1191,-0.4716 -0.1784,-1.0452 -0.1784,-1.7215 0,-0.6761 0.0643,-1.2499 0.193,-1.7214 0.1284,-0.4713 0.3212,-0.8545 0.5783,-1.1498 0.2572,-0.2951 0.5834,-0.5095 0.9785,-0.6429 0.3954,-0.1333 0.8596,-0.2001 1.393,-0.2001 0.5046,0 0.9331,0.0359 1.2858,0.1073 0.3521,0.0714 0.7093,0.1785 1.0712,0.3215 l 0,6.2854 c 0,1.2856 -0.2524,2.2022 -0.7571,2.7499 -0.5049,0.5475 -1.2763,0.8214 -2.314,0.8214 -0.3622,0 -0.7073,-0.0284 -1.036,-0.0857 -0.3285,-0.0573 -0.6023,-0.1239 -0.8214,-0.2001 l 0,-0.7143 1.5714,0 c 0.5333,0 0.9405,-0.1641 1.2215,-0.4929 0.2807,-0.3282 0.4215,-0.902 0.4215,-1.7211 z m -5.3571,0.2142 -1.714,0 0,-7.1425 1.714,0 0,7.1425 z m 0,-7.9999 -1.714,0 0,-1.7144 1.714,0 0,1.7144 z m -3.357,3 c 0,0.9621 -0.0785,1.7714 -0.2355,2.4287 -0.1574,0.6569 -0.3906,1.1853 -0.7,1.5854 -0.3096,0.4001 -0.6907,0.6882 -1.1428,0.8643 -0.4527,0.1762 -0.974,0.2642 -1.5644,0.2642 -0.5429,0 -1.0048,-0.0213 -1.3857,-0.0641 -0.381,-0.0427 -0.7525,-0.1166 -1.1144,-0.2214 l 0,-9.7142 c 0.3619,-0.1046 0.7334,-0.1785 1.1144,-0.2214 0.3809,-0.0428 0.8428,-0.0642 1.3857,-0.0642 0.5904,0 1.1117,0.0882 1.5644,0.2642 0.4521,0.1764 0.8332,0.4645 1.1428,0.8644 0.3094,0.3998 0.5426,0.9284 0.7,1.5857 0.157,0.657 0.2355,1.4665 0.2355,2.4284 z" />
  <path
     id="path8"
     style="fill:#ea5045;fill-rule:evenodd"
     d="m 71.66,18.9137 c -0.5521,0 -1.038,-0.081 -1.457,-0.2428 -0.4192,-0.1619 -0.7691,-0.4381 -1.0501,-0.8287 -0.281,-0.3904 -0.4928,-0.9164 -0.6356,-1.5785 -0.1428,-0.6617 -0.2142,-1.4929 -0.2142,-2.4927 0,-1 0.0714,-1.831 0.2142,-2.4928 0.1428,-0.662 0.3501,-1.1881 0.6215,-1.5786 0.2715,-0.3903 0.6071,-0.6665 1.0072,-0.8287 0.3999,-0.1619 0.8571,-0.2428 1.3713,-0.2428 0.5044,0 0.9571,0.0286 1.357,0.0857 0.4001,0.0574 0.7095,0.1239 0.9287,0.2001 l 0,0.7857 -1.7144,0 c -0.3049,0 -0.5834,0.0621 -0.8355,0.1857 -0.2525,0.1239 -0.4715,0.3381 -0.6572,0.6429 -0.1857,0.3049 -0.3285,0.7214 -0.4286,1.25 -0.1,0.5285 -0.15,1.1928 -0.15,1.9928 0,0.8 0.0523,1.464 0.1571,1.9926 0.1048,0.5286 0.2524,0.9455 0.4431,1.2499 0.19,0.3049 0.4213,0.5193 0.6924,0.643 0.2717,0.1239 0.5789,0.1857 0.9214,0.1857 l 1.7147,0 0,0.7856 c -0.2192,0.0765 -0.5288,0.1431 -0.929,0.2002 -0.3996,0.0572 -0.852,0.0857 -1.357,0.0857 z m 36.7271,-6.0713 0,3.6429 c 0,0.2854 0.0286,0.5212 0.0857,0.7069 0.0571,0.1856 0.1307,0.3311 0.2216,0.4359 0.0903,0.1048 0.19,0.1782 0.2999,0.2212 0.1094,0.0429 0.2164,0.0643 0.3213,0.0643 l 1.2858,0 0,0.7143 c -0.0857,0.038 -0.1978,0.0739 -0.3356,0.1071 -0.1382,0.0337 -0.2857,0.0643 -0.443,0.093 -0.1571,0.0284 -0.3167,0.05 -0.4784,0.0643 -0.1621,0.0141 -0.3144,0.0214 -0.4574,0.0214 -0.3049,0 -0.5904,-0.0334 -0.8571,-0.1001 -0.2666,-0.0663 -0.4999,-0.188 -0.7,-0.3644 -0.1997,-0.176 -0.3596,-0.4213 -0.4782,-0.7357 -0.1195,-0.3142 -0.1788,-0.7235 -0.1788,-1.2282 l 0,-3.6429 -0.7856,0 0,-1.0715 0.7856,0 0,-1.7141 1.7142,0 0,1.7141 1.9285,0 0,0.7857 c -0.2192,0.0765 -0.4928,0.143 -0.8214,0.2001 -0.3285,0.057 -0.6738,0.0857 -1.0357,0.0857 l -0.0714,0 z m -4.7142,-0.3571 c -0.2191,0 -0.4142,0.0407 -0.5855,0.1214 -0.1714,0.0811 -0.3213,0.2239 -0.4499,0.4284 -0.1287,0.2049 -0.2265,0.4836 -0.2929,0.8357 -0.0668,0.3527 -0.1003,0.7953 -0.1003,1.3286 0,0.5334 0.036,0.9762 0.1074,1.3283 0.0714,0.3527 0.1736,0.6312 0.3071,0.836 0.1332,0.2048 0.2973,0.3476 0.4929,0.4286 0.195,0.0809 0.4164,0.1214 0.664,0.1214 l 1.5714,0 0,0.7143 c -0.2192,0.0764 -0.4926,0.1427 -0.8212,0.2 -0.3287,0.057 -0.674,0.0857 -1.0357,0.0857 -0.505,0 -0.9428,-0.0669 -1.3142,-0.2001 -0.3713,-0.1334 -0.6837,-0.3475 -0.9358,-0.6429 -0.2523,-0.295 -0.4406,-0.6783 -0.5643,-1.1498 -0.1239,-0.4716 -0.1857,-1.0452 -0.1857,-1.7215 0,-0.6761 0.0618,-1.2499 0.1857,-1.7214 0.1237,-0.4713 0.3072,-0.8545 0.55,-1.1498 0.243,-0.2951 0.5403,-0.5095 0.893,-0.6429 0.3521,-0.1333 0.7618,-0.2001 1.2283,-0.2001 0.3619,0 0.7072,0.0287 1.0357,0.0857 0.3288,0.0573 0.6023,0.1239 0.8214,0.2001 l 0,0.7143 -1.5714,0 z m -6.3568,2.857 -0.7857,0 c -0.1237,0 -0.2499,0.0193 -0.3785,0.0572 -0.1287,0.038 -0.2429,0.1071 -0.3429,0.2071 -0.1,0.1001 -0.1834,0.2333 -0.2498,0.4 -0.0669,0.1665 -0.1003,0.3736 -0.1003,0.6215 0,0.2476 0.0334,0.4546 0.1003,0.6213 0.0664,0.1666 0.1498,0.3001 0.2498,0.3999 0.1,0.1003 0.2142,0.1694 0.3429,0.2071 0.1286,0.0385 0.2548,0.0573 0.3785,0.0573 0.1809,0 0.338,-0.0284 0.4715,-0.0857 0.1332,-0.057 0.2377,-0.1237 0.3142,-0.2001 l 0,-2.2856 z m -1.357,3.5712 c -0.3049,0 -0.5907,-0.0309 -0.8573,-0.0927 -0.2667,-0.0619 -0.5,-0.1787 -0.7,-0.3499 -0.2001,-0.1717 -0.3595,-0.4049 -0.4783,-0.6999 -0.1194,-0.2951 -0.1787,-0.6765 -0.1787,-1.1429 0,-0.4667 0.0593,-0.8475 0.1787,-1.1431 0.1188,-0.2949 0.2833,-0.5283 0.4929,-0.6997 0.2093,-0.1715 0.4569,-0.2881 0.7426,-0.3501 0.2858,-0.0619 0.6,-0.093 0.9428,-0.093 0.219,0 0.4309,0.0145 0.6357,0.0429 0.2048,0.0287 0.3976,0.0621 0.5786,0.1001 l 0,-0.5716 c 0,-0.5713 -0.1332,-0.952 -0.3999,-1.1425 -0.2667,-0.1906 -0.6334,-0.2858 -1.1001,-0.2858 l -1.4284,0 0,-0.7143 c 0.2189,-0.0762 0.4878,-0.1427 0.807,-0.2001 0.319,-0.057 0.6214,-0.0857 0.9071,-0.0857 0.4859,0 0.9094,0.0337 1.2716,0.1 0.3617,0.0667 0.6665,0.1883 0.9141,0.3642 0.2478,0.1765 0.4333,0.424 0.5572,0.743 0.1237,0.3192 0.1858,0.7264 0.1858,1.2212 l 0,4.8572 -1.2146,0 -0.214,-0.4286 -0.0714,0 c -0.1526,0.1428 -0.3527,0.2739 -0.6,0.3929 -0.2478,0.1189 -0.5715,0.1784 -0.9714,0.1784 z m -5.0855,-6.0711 0,3.6429 c 0,0.2854 0.0286,0.5212 0.0857,0.7069 0.0571,0.1856 0.1307,0.3311 0.2216,0.4359 0.0902,0.1048 0.19,0.1782 0.2998,0.2212 0.1094,0.0429 0.2164,0.0643 0.3213,0.0643 l 1.2858,0 0,0.7143 c -0.0857,0.038 -0.1978,0.0739 -0.3355,0.1071 -0.1382,0.0337 -0.2858,0.0643 -0.4431,0.093 -0.1571,0.0284 -0.3167,0.05 -0.4784,0.0643 -0.162,0.0141 -0.3144,0.0214 -0.4574,0.0214 -0.3048,0 -0.5903,-0.0334 -0.857,-0.1001 -0.2666,-0.0663 -0.4999,-0.188 -0.7,-0.3644 -0.1998,-0.176 -0.3596,-0.4213 -0.4782,-0.7357 -0.1194,-0.3142 -0.1788,-0.7235 -0.1788,-1.2282 l 0,-3.6429 -0.7856,0 0,-1.0715 0.7856,0 0,-1.7141 1.7142,0 0,1.7141 1.9285,0 0,0.7857 c -0.2192,0.0765 -0.4929,0.143 -0.8214,0.2001 -0.3285,0.057 -0.6739,0.0857 -1.0357,0.0857 l -0.0714,0 z m -5.9283,-1.3571 c 0.3048,0 0.5906,0.0309 0.857,0.0927 0.2667,0.0621 0.4999,0.1787 0.7,0.3501 0.2,0.1715 0.3594,0.405 0.4788,0.7 0.1189,0.2954 0.1787,0.6763 0.1787,1.1428 l 0,4.9999 -1.7147,0 0,-4.9999 c 0,-0.2476 -0.0334,-0.4547 -0.0997,-0.6213 -0.0669,-0.1666 -0.1526,-0.3 -0.2574,-0.4001 -0.1048,-0.1 -0.2262,-0.1691 -0.3642,-0.2071 -0.1382,-0.0379 -0.2785,-0.057 -0.4215,-0.057 -0.1807,0 -0.3378,0.0284 -0.4712,0.0855 -0.1335,0.0572 -0.2383,0.1239 -0.3145,0.2 l 0,5.9999 -1.7141,0 0,-7.1427 1.2142,0 0.2144,0.4285 0.0714,0 c 0.152,-0.1428 0.3571,-0.2734 0.6143,-0.3928 0.2571,-0.119 0.5999,-0.1785 1.0285,-0.1785 z m -7.4997,0.9285 c -0.1622,0 -0.312,0.0408 -0.45,0.1214 -0.1382,0.081 -0.2596,0.2265 -0.3642,0.4358 -0.1051,0.2094 -0.1859,0.4951 -0.243,0.8571 -0.0571,0.3619 -0.0857,0.8191 -0.0857,1.3712 0,0.5525 0.0286,1.0097 0.0857,1.3716 0.0571,0.3619 0.1379,0.6478 0.243,0.8571 0.1046,0.2096 0.226,0.3549 0.3642,0.4356 0.138,0.0809 0.2878,0.1216 0.45,0.1216 0.162,0 0.3119,-0.0407 0.4501,-0.1216 0.138,-0.0807 0.2591,-0.226 0.3642,-0.4356 0.1045,-0.2093 0.1857,-0.4952 0.2427,-0.8571 0.0574,-0.3619 0.0857,-0.8191 0.0857,-1.3716 0,-0.5521 -0.0283,-1.0093 -0.0857,-1.3712 -0.057,-0.362 -0.1382,-0.6477 -0.2427,-0.8571 -0.1051,-0.2093 -0.2262,-0.3548 -0.3642,-0.4358 -0.1382,-0.0806 -0.2881,-0.1214 -0.4501,-0.1214 z m 0,-0.9284 c 0.4664,0 0.8761,0.0666 1.2287,0.1998 0.3521,0.1334 0.65,0.3478 0.8925,0.6429 0.2431,0.2953 0.4263,0.6786 0.5502,1.1499 0.1237,0.4715 0.1857,1.0453 0.1857,1.7213 0,0.6764 -0.062,1.25 -0.1857,1.7215 -0.1239,0.4715 -0.3071,0.8548 -0.5502,1.1499 -0.2425,0.2953 -0.5404,0.5097 -0.8925,0.6429 -0.3526,0.1332 -0.7623,0.2001 -1.2287,0.2001 -0.4666,0 -0.8762,-0.0669 -1.2286,-0.2001 -0.3524,-0.1332 -0.65,-0.3476 -0.8928,-0.6429 -0.2428,-0.2951 -0.4265,-0.6784 -0.5499,-1.1499 -0.1239,-0.4715 -0.1858,-1.0451 -0.1858,-1.7215 0,-0.676 0.0619,-1.2498 0.1858,-1.7213 0.1234,-0.4713 0.3071,-0.8546 0.5499,-1.1499 0.2428,-0.2951 0.5404,-0.5095 0.8928,-0.6429 0.3524,-0.1332 0.762,-0.1998 1.2286,-0.1998 z" />
</svg>
