<?xml version="1.0" encoding="UTF-8" standalone="no"?>
<svg
   xmlns:dc="http://purl.org/dc/elements/1.1/"
   xmlns:cc="http://creativecommons.org/ns#"
   xmlns:rdf="http://www.w3.org/1999/02/22-rdf-syntax-ns#"
   xmlns:svg="http://www.w3.org/2000/svg"
   xmlns="http://www.w3.org/2000/svg"
   viewBox="0 0 190.0797 47.519699"
   id="svg2"
   height="66"
   width="264"
   version="1.1">
  <metadata
     id="metadata13">
    <rdf:RDF>
      <cc:Work
         rdf:about="">
        <dc:format>image/svg+xml</dc:format>
        <dc:type
           rdf:resource="http://purl.org/dc/dcmitype/StillImage" />
      </cc:Work>
    </rdf:RDF>
  </metadata>
  <defs
     id="defs11" />
  <g
     id="Layer1000">
    <path
       id="path5"
       style="fill:#e96139;fill-rule:evenodd"
       d="m 70.9264,46.7831 -12.6295,0 0,-24.3774 c 0,-2.9664 0.0646,-5.6752 0.1936,-8.1257 -0.7741,0.9459 -1.7413,1.9346 -2.9021,2.9556 l -5.2237,4.3209 -6.4599,-7.943 15.8108,-12.8766 11.2108,0 0,46.0462 z m 43.6493,-22.9478 c 0,8.1473 -1.3652,14.1233 -4.0952,17.9067 -2.7301,3.7945 -6.9004,5.686 -12.5326,5.686 -5.5032,0 -9.6522,-1.9777 -12.4359,-5.9332 -2.7946,-3.9659 -4.1918,-9.8456 -4.1918,-17.6595 0,-8.1902 1.3649,-14.188 4.0949,-18.0142 2.7303,-3.8157 6.9114,-5.7291 12.5328,-5.7291 5.4817,0 9.6197,1.9885 12.4251,5.9655 2.8055,3.9767 4.2027,9.9099 4.2027,17.7778 z M 93.6914,23.8245 c 0,5.2129 0.3334,8.7922 0.9783,10.7376 0.6556,1.9562 1.7413,2.9345 3.2782,2.9345 1.5585,0 2.655,-1.0103 3.2891,-3.0204 0.6448,-2.0208 0.9671,-5.5678 0.9671,-10.6517 0,-5.1055 -0.333,-8.6848 -0.9779,-10.7269 -0.6557,-2.0528 -1.7413,-3.0742 -3.2783,-3.0742 -1.5369,0 -2.6226,0.9891 -3.2782,2.9668 -0.6449,1.9669 -0.9783,5.5783 -0.9783,10.8343 z m 58.4822,22.9586 -33.4061,0 0,-8.1796 11.2431,-11.3718 c 3.2136,-3.3534 5.3096,-5.6537 6.2983,-6.8788 0.989,-1.2254 1.677,-2.2895 2.0639,-3.1708 0.3869,-0.8813 0.5803,-1.8057 0.5803,-2.7732 0,-1.1931 -0.387,-2.139 -1.1608,-2.8267 -0.7847,-0.6987 -1.8703,-1.0426 -3.2783,-1.0426 -1.4511,0 -2.9129,0.419 -4.396,1.2467 -1.4833,0.8277 -3.1493,2.0529 -5.0196,3.6652 l -6.836,-7.9968 c 2.3754,-2.1175 4.3639,-3.6329 5.9871,-4.5465 1.612,-0.9136 3.3749,-1.6123 5.2665,-2.0959 1.9026,-0.4839 4.0413,-0.7203 6.4167,-0.7203 2.9776,0 5.643,0.5267 7.9756,1.5692 2.3431,1.0534 4.1596,2.5475 5.4493,4.493 1.2898,1.9346 1.9347,4.1167 1.9347,6.5242 0,1.8056 -0.2257,3.4826 -0.6772,5.0088 -0.4513,1.5369 -1.15,3.0419 -2.0852,4.5249 -0.9459,1.4834 -2.2034,3.0419 -3.7726,4.6758 -1.5585,1.6444 -4.8906,4.7509 -9.9961,9.3297 l 0,0.3115 17.4124,0 0,10.254 z m 37.9851,-22.9478 c 0,8.1473 -1.3652,14.1233 -4.0953,17.9067 -2.73,3.7945 -6.9003,5.686 -12.5325,5.686 -5.5032,0 -9.6522,-1.9777 -12.4359,-5.9332 -2.7946,-3.9659 -4.1918,-9.8456 -4.1918,-17.6595 0,-8.1902 1.3648,-14.188 4.0949,-18.0142 2.7303,-3.8157 6.9114,-5.7291 12.5328,-5.7291 5.4817,0 9.6197,1.9885 12.4251,5.9655 2.8055,3.9767 4.2027,9.9099 4.2027,17.7778 z m -20.8843,-0.0108 c 0,5.2129 0.3334,8.7922 0.9782,10.7376 0.6557,1.9562 1.7414,2.9345 3.2783,2.9345 1.5585,0 2.6549,-1.0103 3.2891,-3.0204 0.6448,-2.0208 0.9671,-5.5678 0.9671,-10.6517 0,-5.1055 -0.333,-8.6848 -0.9779,-10.7269 -0.6557,-2.0528 -1.7413,-3.0742 -3.2783,-3.0742 -1.5369,0 -2.6226,0.9891 -3.2783,2.9668 -0.6448,1.9669 -0.9782,5.5783 -0.9782,10.8343 z" />
    <path
       id="path7"
       style="fill:#e96139;fill-rule:evenodd"
       d="m 37.9569,15.3763 c 0,5.1487 -1.5154,9.1148 -4.5465,11.9201 -3.042,2.8053 -7.3518,4.2025 -12.9304,4.2025 l -3.5039,0 0,1.4671 12.1305,0 0,5.9928 -12.1305,0 0,7.8244 -12.436,0 0,-7.8244 -4.6194,0 0,-5.9928 4.6194,0 0,-1.4671 -4.6194,0 0,-10.1248 4.6194,0 0,-20.637 15.9399,0 c 5.815,0 10.1789,1.2684 13.1024,3.805 2.9126,2.5474 4.3745,6.1589 4.3745,10.8342 z m -20.9808,5.9978 2.2679,0 c 1.8703,0 3.3642,-0.5268 4.4606,-1.5695 1.107,-1.0532 1.6551,-2.5042 1.6551,-4.353 0,-3.1061 -1.7197,-4.6539 -5.1699,-4.6539 l -3.2137,0 0,10.5764 z" />
  </g>
</svg>
