<?xml version="1.0" encoding="UTF-8" standalone="no"?>
<svg
   xmlns:dc="http://purl.org/dc/elements/1.1/"
   xmlns:cc="http://creativecommons.org/ns#"
   xmlns:rdf="http://www.w3.org/1999/02/22-rdf-syntax-ns#"
   xmlns:svg="http://www.w3.org/2000/svg"
   xmlns="http://www.w3.org/2000/svg"
   viewBox="0 0 148.3197 35.999699"
   id="svg2"
   height="50"
   width="206"
   version="1.1">
  <metadata
     id="metadata10">
    <rdf:RDF>
      <cc:Work
         rdf:about="">
        <dc:format>image/svg+xml</dc:format>
        <dc:type
           rdf:resource="http://purl.org/dc/dcmitype/StillImage" />
      </cc:Work>
    </rdf:RDF>
  </metadata>
  <defs
     id="defs8" />
  <path
     id="path4"
     style="fill:#b3b3b3;fill-rule:evenodd"
     d="m 118.0021,7.6161 c -0.1104,-0.1813 -0.2528,-0.162 -0.2919,0.0584 -0.0516,0.2592 -0.1353,0.7322 -0.272,0.9783 -0.0801,0.1607 -0.1749,0.149 -0.3066,0.1125 0,0 -0.7331,-0.7289 -0.7932,-0.7933 -0.0598,-0.0644 -0.1636,-0.0773 -0.1504,0.0264 0.006,0.052 0.0948,1.073 0.2063,1.6018 0,0 0.018,0.2118 0.139,0.2087 0.1209,-0.0029 1.6979,-0.1948 2.519,-0.3478 0.375,-0.0827 0.9451,-0.1669 0.9881,-0.4036 0.0139,-0.2922 0.1111,-0.7097 -0.0835,-0.9323 -0.3619,-0.2227 -0.5984,0.2644 -0.8769,0.4035 -0.626,0.1948 -0.8276,-0.5786 -1.0779,-0.9126 z m -22.3855,9.0955 c -0.8626,-0.3061 -1.9648,-0.4053 -2.8668,0.2922 -1.5588,1.2386 -2.1292,3.0755 -1.8231,5.0101 0.2924,1.6559 0.8074,3.2983 2.3657,4.2306 0.5986,0.3759 1.4616,0.1532 2.0599,-0.0695 1.1272,-0.4591 1.698,-1.7397 1.9484,-2.8389 0.292,-1.8651 0.6918,-3.146 -0.4856,-5.6019 -0.2953,-0.4862 -0.795,-0.8555 -1.1985,-1.0226 z m 2.2545,0.6541 c 1.183,1.7954 1.3081,4.356 0.8351,6.513 -0.4036,1.8372 -1.6282,3.8689 -3.5487,4.4672 -1.6005,0.515 -3.6184,0.3481 -4.8014,-0.9184 -2.1151,-2.0597 -2.2822,-5.5943 -1.3497,-8.2527 0.6401,-1.9203 2.4074,-4.0497 4.6064,-4.2028 1.8508,-0.153 3.3537,0.8908 4.2583,2.3937 z M 57.5826,16.4611 c -1.4753,0.2366 -2.1652,1.793 -2.4912,2.9922 0.7793,0.0416 1.6144,0.0416 2.3799,0 0.7121,-0.0641 1.5447,-0.0836 1.8787,-0.8351 0.2087,-0.4732 0.0417,-1.002 -0.181,-1.3917 -0.3617,-0.5149 -0.8205,-0.7681 -1.5864,-0.7654 z m 2.3657,-0.0835 c 0.5985,0.8489 0.9881,1.7814 1.2386,2.7835 0.0569,0.2775 -0.0321,0.5353 -0.153,0.7236 -0.4871,0.6261 -1.3917,0.459 -2.1571,0.5286 -1.3222,0.042 -2.6721,0.0836 -4.0219,0.042 -0.3061,1.3359 -0.4732,2.8389 -0.2505,4.2863 0.0974,0.668 0.4593,1.3498 1.1133,1.6561 1.1273,0.4035 2.4772,0.153 3.4236,-0.4316 0.6262,-0.3338 0.8349,-0.9182 0.8628,-1.5724 -0.014,-0.6542 -0.2227,-1.2247 -0.8073,-1.5866 -0.4869,-0.254 -1.1048,-0.3877 -1.5028,0 -0.1811,0.1671 -0.2506,0.4454 -0.1114,0.682 0.117,0.1742 0.3509,0.3412 0.3757,0.6124 0.0139,0.2504 -0.0835,0.4871 -0.3201,0.6122 -0.2505,0.1391 -0.6819,0.0975 -0.9324,-0.0557 -0.4175,-0.2783 -0.5846,-0.7098 -0.5985,-1.183 0.0139,-0.5565 0.2923,-1.0714 0.7793,-1.3496 1.1969,-0.5847 2.7556,-0.1672 3.7854,0.5564 0.9881,0.7378 1.35,1.8649 1.0994,3.0341 -0.654,1.6836 -2.4632,2.3378 -4.0635,2.644 -2.2129,0.4036 -3.7854,-1.7395 -4.8432,-3.312 -1.2384,-2.4634 -0.6122,-5.6782 0.9187,-7.7657 1.0715,-1.3637 2.477,-2.6303 4.3139,-2.1987 0.71,0.1949 1.3501,0.654 1.851,1.2941 z m 83.806,0.0697 c -1.4752,0.3199 -2.0041,1.9345 -2.1989,3.1868 1.0576,-0.0973 2.185,-0.0139 3.2426,-0.1392 0.5289,-0.0139 1.1133,-0.0836 1.3915,-0.5845 0.0836,-0.2504 0.042,-0.5704 -0.0414,-0.7932 -0.3898,-0.9045 -1.3221,-1.8648 -2.3938,-1.6699 z m 3.7854,0.334 c 0.3895,0.8628 0.519,2.0863 -0.028,3.0199 -0.9462,1.6003 -2.9743,0.9702 -4.5367,1.0297 l -1.5447,-0.0695 c -0.195,1.6422 -0.1115,3.4096 0.5844,4.7454 0.6261,1.0161 1.7673,1.1832 2.8809,1.0718 0.807,-0.1672 1.6699,-0.6401 1.9762,-1.4472 0.4144,-0.9541 -0.1812,-1.3083 -0.0559,-1.9761 0.0435,-0.1729 0.2828,-0.2469 0.3758,-0.2368 0.5845,0.0974 0.8906,0.7096 1.0717,1.2107 0.334,0.9879 0.139,2.1712 -0.4732,2.9641 -1.0578,1.2666 -2.7415,1.7258 -4.3143,1.2666 -2.3378,-0.7932 -4.6341,-3.0895 -4.7873,-5.6919 -0.3479,-3.006 1.002,-5.7893 3.674,-7.195 1.155,-0.6958 2.992,-0.8767 4.1055,0.0279 0.4452,0.3478 0.821,0.7933 1.0716,1.2804 z M 47.66,15.6121 c 0.9046,1.0856 0.0883,2.4494 -0.1392,3.549 -0.0398,0.1527 -0.1983,0.3114 -0.4453,0.3199 -0.1759,0 -0.3927,-0.1261 -0.413,-0.2978 -0.1948,-0.9602 -0.1158,-2.221 -1.2152,-2.6245 -0.4732,-0.0976 -1.0577,-0.0419 -1.4196,0.3061 -1.4612,1.3637 -1.6003,3.4373 -1.5447,5.4551 0.1531,1.545 0.6262,3.2707 2.1571,3.9805 0.5985,0.2085 1.4611,0.2085 1.9761,-0.1393 0.9046,-0.7238 0.5706,-2.0596 0.6959,-3.1452 0.0695,-0.1807 0.1669,-0.4176 0.3756,-0.4314 0.5567,0 0.9186,0.5983 1.0994,1.0436 0.3063,1.0022 -0.0138,2.0181 -0.7514,2.7833 -1.2524,1.197 -2.5884,2.1989 -4.3698,1.9763 -2.0458,-0.5011 -3.4651,-2.6164 -3.7019,-4.5925 -0.5288,-3.2563 0.9602,-6.1651 3.6046,-7.9185 1.1133,-0.6681 2.9919,-1.4752 4.0914,-0.2646 z m -11.9405,1.2248 c 0.2087,0.4037 0.5427,0.7932 0.3758,1.3081 -0.0697,0.181 -0.2227,0.3481 -0.4176,0.4037 -0.2504,0.0279 -0.5368,-0.0102 -0.6262,-0.1669 -0.6401,-0.7934 -1.2107,-2.0181 -2.4632,-1.6841 -1.6839,0.6124 -2.004,2.5329 -2.1709,4.1472 -0.0976,2.0457 0,4.1054 1.3638,5.5806 0.3757,0.348 0.8285,0.5303 1.4195,0.4314 1.1272,-0.2922 2.3935,-1.4056 2.5327,-2.6721 0.0279,-0.2086 -0.0155,-0.4047 -0.1392,-0.5427 -0.3982,-0.3902 -1.28,-0.0724 -1.88,-0.0815 -0.4272,-0.0065 -0.6427,-0.1143 -0.7096,-0.6237 -0.0334,-0.3422 0.3172,-0.7262 0.7388,-0.8533 1.0159,-0.2645 1.8508,0.292 2.5744,1.0018 0.668,0.7654 1.0856,1.8789 0.6403,2.8948 -0.9743,1.7953 -2.7417,2.6301 -4.7596,2.5188 -1.8092,-0.0976 -3.4931,-1.4057 -4.0497,-3.1451 -0.6539,-1.9343 -0.7236,-4.509 0.1254,-6.3878 0.6818,-1.7255 2.1291,-3.8131 4.1471,-4.0218 1.4195,-0.1114 2.4492,0.8211 3.2982,1.8926 z m 48.7638,-1.1691 c 0.362,0.5429 0.6958,1.336 0.2644,1.9623 -0.1531,0.167 -0.3617,0.2088 -0.5845,0.2088 -0.8588,-0.1096 -0.7656,-1.0673 -1.7534,-1.5029 -0.7514,-0.334 -1.809,-0.2645 -2.4354,0.2783 -0.6821,0.5427 -1.0717,1.5273 -0.6401,2.3379 0.8905,1.67 2.6439,1.8787 4.1053,2.6721 1.002,0.5148 2.1293,1.5447 2.0875,2.7973 0.0695,1.5169 -0.773,2.6043 -2.1432,3.5208 -1.4195,0.8767 -3.7851,1.0436 -5.2465,0.0556 -0.863,-0.6262 -1.4336,-1.5169 -1.3918,-2.6023 0.0697,-0.7238 0.4314,-1.3778 1.0856,-1.7676 0.6959,-0.4036 1.7953,-0.4453 2.4215,0.0976 0.3481,0.32 0.501,0.6819 0.515,1.1551 0.0232,0.2167 -0.0729,0.4378 -0.3096,0.5492 -0.167,0.1112 -0.4522,0.0799 -0.6368,0.0073 -0.5069,-0.2467 -0.6818,-1.1271 -1.3916,-0.7236 -0.2645,0.1391 -0.5427,0.4593 -0.5985,0.7655 -0.0695,0.5566 0.1948,1.0437 0.668,1.3639 1.0159,0.6679 2.6441,0.7097 3.6879,0.0694 0.7514,-0.4592 1.3497,-1.1966 1.336,-2.1013 -0.0191,-0.6845 -0.2451,-1.0835 -0.6957,-1.2942 -1.3501,-0.7099 -3.1175,-0.6264 -4.3282,-1.6423 -1.1689,-0.8767 -1.5308,-2.3798 -1.1689,-3.7853 0.7374,-2.2127 3.0753,-3.0338 5.2187,-3.187 0.7654,0 1.4612,0.1253 1.9343,0.7654 z m -10.7576,0.6541 c 0.3063,1.336 -1.1271,2.3799 -2.0735,2.9784 -0.4871,0.3061 -1.322,0.487 -1.8787,0.1669 -0.2923,-0.1669 -0.4871,-0.4594 -0.5427,-0.7654 -0.0976,-0.5846 0.167,-1.0856 0.6401,-1.3917 0.1718,-0.0965 0.3892,-0.143 0.5985,-0.0695 0.5706,0.2922 -0.1115,1.1828 0.6122,1.3221 0.2924,0.0139 0.529,-0.1393 0.7097,-0.3203 0.3202,-0.4035 0.3897,-1.0992 0.181,-1.6003 -0.2505,-0.5568 -0.7654,-0.8351 -1.336,-0.8628 -1.2107,-0.0418 -2.2822,0.3896 -2.8251,1.5029 -0.32,0.6819 -0.2087,1.6282 0.2227,2.2267 1.3499,1.6283 3.3955,1.8371 5.0099,3.0338 0.8211,0.6818 1.0161,1.7257 0.8351,2.7695 -0.2922,1.5167 -1.9204,2.6302 -3.2147,3.006 -1.6839,0.4869 -3.2844,-0.3061 -4.5507,-1.3085 -0.7237,-0.6261 -1.3917,-1.475 -1.0717,-2.463 0.4316,-0.9464 1.5031,-1.1132 2.491,-1.0297 0.3109,0.039 0.7098,0.1667 0.7795,0.5427 0.0556,0.5844 -0.4548,0.4303 -0.9046,0.7515 -0.2089,0.1391 -0.5164,0.4139 -0.515,0.668 0.0139,0.5428 0.181,1.0437 0.668,1.3639 0.7934,0.5008 2.0597,0.5008 2.8948,0.1252 0.6122,-0.2506 1.0019,-0.9048 1.0298,-1.5449 0.0417,-1.4334 -1.5309,-2.157 -2.5329,-2.6859 -1.3917,-0.6539 -3.1868,-1.823 -3.326,-3.5905 -0.2227,-1.5029 0.6401,-2.8528 1.9064,-3.5349 1.4614,-0.8905 3.7994,-0.9602 5.3859,-0.153 0.3551,0.1893 0.6946,0.4909 0.807,0.8628 z m 55.416,-0.8349 c 1.322,0.1251 2.6721,0 3.9525,-0.153 0.8628,-0.0697 1.7116,-0.5985 2.6023,-0.3342 0.2366,0.1253 0.3479,0.3758 0.3758,0.6403 0.1206,0.6639 -1.0715,1.1271 -1.5865,1.7256 -2.1571,1.9346 -3.6322,4.356 -4.996,6.7635 -0.3481,0.7236 -1.0963,1.8979 -0.4176,2.4355 0.4869,0.3617 0.9851,0.3725 1.5309,0.4243 1.222,0.078 2.811,0.0904 3.6879,-0.7168 0.2228,-0.2643 0.292,-0.6539 0.1948,-1.0018 -0.1114,-0.3481 -0.5567,-0.5567 -0.3619,-0.9743 0.119,-0.2383 0.3464,-0.3489 0.6128,-0.3163 0.2862,0.052 0.6567,0.403 0.8624,0.7339 0.4593,0.7794 0.4037,1.9901 0,2.7833 -0.7236,1.5169 -2.477,0.9325 -3.7715,0.8489 -1.155,-0.1668 -2.3659,-0.3479 -3.5624,-0.2922 -1.1134,-0.0416 -2.1016,0.2922 -3.1174,0.4174 -0.1531,-0.0276 -0.3479,-0.0973 -0.4176,-0.2782 -0.0695,-0.1808 -0.1253,-0.5009 0.0417,-0.668 0.7934,-0.5009 1.4891,-1.1968 2.0457,-1.9762 1.7953,-2.7694 2.1711,-6.2484 5.0797,-8.4334 -2.1711,0.0833 -4.3001,-0.1948 -5.9703,-1.2943 -0.2086,-0.1532 -0.473,-0.334 -0.5288,-0.5985 -0.0277,-0.1808 0.0447,-0.4134 0.2087,-0.4174 0.5846,-0.0138 1.0715,0.3341 1.6282,0.4035 l 1.9066,0.2784 z m -7.7235,-0.4593 c 0.1948,0.9185 -0.863,1.1273 -1.3362,1.67 -0.8489,0.8767 -0.8489,2.1432 -0.9046,3.3816 0,1.6562 -0.1111,3.3957 0.2227,4.9266 0.3063,1.3083 1.5865,1.9624 2.6721,2.3936 0.2504,0.1254 0.2645,0.4315 0.1948,0.6681 -0.3758,0.529 -1.1412,0.2506 -1.67,0.1807 -0.988,-0.2362 -2.0041,-0.5286 -3.1033,-0.3338 -0.9325,0.2366 -1.865,0.6262 -2.7972,0.849 -0.2227,0.0416 -0.3891,-0.0051 -0.5562,-0.0887 -0.1669,-0.111 -0.2318,-0.2978 -0.2234,-0.454 0.014,-0.2645 0.2519,-0.4973 0.4732,-0.6124 1.002,-0.4871 2.438,-0.7252 2.6861,-2.1711 0.153,-2.2266 0.2085,-4.6064 0.0833,-6.8746 -0.0972,-0.7377 -0.2784,-1.5727 -1.0158,-1.9068 -0.6805,-0.3199 -1.8788,-0.0835 -1.6143,-1.1968 0.1111,-0.2643 0.4036,-0.3479 0.668,-0.3061 1.5309,0.2505 3.493,1.0856 4.9264,0 0.3201,-0.2922 0.9881,-0.668 1.2944,-0.1253 z m -9.3798,1.2525 c 0.3756,0.8489 0.3756,2.1016 -0.1392,2.8946 -0.6124,0.9045 -1.6423,1.2805 -2.7416,1.0855 -0.7028,-0.1767 -1.2165,-0.562 -1.3145,-1.0946 -0.0697,-0.4174 0,-0.9577 0.2791,-1.2768 0.6252,-0.6116 1.0241,-0.492 1.091,-0.1892 0.0397,0.2957 -0.4965,0.7067 0.0262,1.3198 0.1422,0.1716 0.3912,0.1833 0.5724,0.1553 0.3322,-0.0756 0.4649,-0.2221 0.5844,-0.4453 0.3477,-0.8071 0.139,-1.7813 -0.4454,-2.4076 -0.4314,-0.4452 -1.0838,-0.5875 -1.7118,-0.4452 -1.6422,0.4452 -2.0736,2.1292 -2.2823,3.5905 -0.1948,2.0318 -0.1253,4.2026 0.3341,6.0815 0.2085,0.5289 0.5844,1.1272 1.2247,1.2802 0.3276,0.0643 0.8063,0.1041 0.9601,0.2786 0.0975,0.139 0.1114,0.3477 0.0558,0.5009 -0.2924,0.5148 -0.9278,0.5746 -1.5029,0.4872 -1.1692,-0.1532 -2.2844,-0.4312 -3.6743,-0.028 -0.668,0.1532 -1.6025,0.7407 -1.9203,0.5844 -0.195,-0.0974 -0.348,-0.2643 -0.3063,-0.5147 0.1531,-0.6681 0.8488,-0.7516 1.2664,-1.1551 1.7674,-1.0437 1.2107,-3.2427 1.3916,-5.024 -0.0554,-1.7674 0.4316,-4.0776 -1.4332,-4.8012 -0.2089,-0.0696 -0.4593,-0.167 -0.5708,-0.3619 -0.0834,-0.1669 -0.0834,-0.4175 0.014,-0.5706 0.2228,-0.306 0.5942,-0.3041 0.9603,-0.2225 0.5288,0.153 1.0573,0.5036 1.6282,0.4453 2.1571,-0.2646 3.5209,-2.3519 5.9007,-1.5865 0.7098,0.1809 1.4055,0.7236 1.7536,1.4194 z M 14.0931,10.4631 c -0.1671,0.0695 -0.2923,0.2504 -0.348,0.4035 -0.5427,2.5885 -1.0854,5.1631 -1.8648,7.6681 0.9185,0.0697 1.837,0.1253 2.7833,0.1392 -0.3201,-2.4771 -0.1113,-5.2188 -0.1947,-7.8073 -0.0418,-0.167 -0.1254,-0.473 -0.3758,-0.4035 z m 2.992,-3.5347 c 0.6124,0 1.4195,-0.5291 1.851,0.1669 0.2783,0.9743 -0.7317,0.8526 -1.1274,2.0179 -1.0019,2.8667 -0.576,6.5334 -0.1585,9.5395 l 0.0612,-0.0066 c 2.0596,-0.2227 4.0497,-0.4037 5.5527,-1.9207 0.3201,-0.3894 0.5288,-0.8487 0.5288,-1.3637 -0.0138,-0.2782 -0.2087,-0.5288 -0.4453,-0.6401 -0.6401,-0.1808 -1.2524,0.2366 -1.67,0.7514 -0.1143,0.1329 -0.4453,0.1114 -0.654,0.0558 -0.2088,-0.0558 -0.348,-0.2784 -0.4175,-0.4732 -0.099,-0.2919 -0.0723,-0.6527 0.2087,-0.9741 0.6819,-0.6542 1.5864,-0.8907 2.5746,-0.6959 0.6678,0.1392 1.336,0.8072 1.4333,1.5031 0.3201,1.8646 -1.0019,3.4373 -2.505,4.2861 -1.2941,0.7796 -2.7136,1.2385 -4.2584,1.4752 0.9185,4.036 2.1015,8.03 4.2584,11.5787 1.0299,1.6142 2.6582,3.1311 4.6761,2.6441 0.3619,-0.1253 0.6959,-0.3479 0.9185,-0.6959 0.167,-0.3198 0.1948,-0.7652 0.1112,-1.1133 -0.0833,-0.3185 -0.4591,-0.5428 -0.8072,-0.5428 -0.3858,0.0505 -0.9184,0.2925 -1.1549,-0.167 -0.0835,-0.2643 0.0695,-0.473 0.2505,-0.6539 0.5009,-0.4315 1.169,-0.5845 1.8369,-0.4592 0.5011,0.1251 1.0716,0.5844 1.2107,1.1131 0.2646,0.9743 0.0418,2.1014 -0.7931,2.7695 -0.6821,0.5844 -1.5449,0.8211 -2.505,0.8768 -1.489,-0.014 -2.8111,-0.5287 -3.9385,-1.2665 -3.7297,-2.5329 -5.3161,-6.6522 -6.4155,-10.6879 -0.2784,-1.0437 -0.5149,-2.0875 -0.6958,-3.1591 -1.3222,-0.0137 -2.6163,-0.1111 -3.8411,-0.3061 -1.2802,3.632 -3.312,6.9723 -5.4135,10.2288 -0.1164,0.1978 -0.1966,0.4918 -0.0278,0.7096 0.1113,0.1254 0.2723,0.1965 0.4453,0.153 1.169,-0.2365 2.3797,-0.5704 3.688,-0.487 0.2505,0.0138 0.4974,0.1563 0.5427,0.3479 0.0556,0.2227 0.0417,0.5009 -0.1253,0.6541 -0.5845,0.4455 -1.0698,0.2642 -2.1849,0.4314 -2.6442,0.4178 -5.0378,1.3361 -7.3758,2.3796 -0.239,0.1 -0.515,0.0282 -0.6959,-0.1389 -0.0777,-0.0614 -0.128,-0.1872 -0.1288,-0.3293 C -0.1066,34.3581 -0.0356,34.1628 0.146,34.0284 1.0645,33.2072 2.0969,32.5766 2.9458,31.6025 6.0771,28.2208 7.5243,24.2822 9.2501,20.2882 8.624,20.1534 8.0394,19.982 7.4409,19.8291 6.3136,19.4533 4.8107,19.481 3.6417,19.8012 3.4469,19.815 3.2168,19.7495 3.1964,19.5646 3.1685,18.9244 3.8921,18.7574 4.3237,18.5627 6.0215,18.0755 8.1646,18.159 9.9876,18.3676 11.0175,15.4314 12.1586,12.453 12.4231,9.155 12.4927,7.5685 11.9917,6.0097 10.5861,5.2583 10.0433,4.98 9.2501,4.9244 8.6656,5.1748 8.095,5.2861 7.775,6.3578 7.093,5.8428 6.8842,5.6757 6.8842,5.3835 6.9399,5.1331 7.3575,4.2284 8.3733,3.8388 9.3336,3.7691 c 3.0617,0 4.6342,3.2567 7.7515,3.1593 z m 105.8532,-6.6935 -0.0868,0.3056 c -1.2246,3.1729 -2.1153,6.4853 -2.2545,10.1035 -0.2784,0.8906 -1.322,0.7793 -2.0318,1.0438 -0.8349,0.1392 -1.6979,0.334 -2.6025,0.2226 -0.1669,-0.0418 -0.2782,-0.2087 -0.3059,-0.3617 -0.1812,-2.5608 -0.0559,-5.2467 -1.044,-7.4872 -0.037,-0.1073 0.0558,-0.2504 0.181,-0.2924 0.2504,-0.0557 0.4173,0.1253 0.5844,0.2924 0.6403,0.7514 1.0715,1.6142 1.6146,2.4076 0.048,0.0656 0.1133,0.07 0.1591,-0.1323 l 0.7592,-3.5418 c 0.0138,-0.1253 0.1384,-0.1975 0.2506,-0.2087 0.1332,-0.0239 0.2782,0.0695 0.3061,0.2087 l 0.7583,3.3809 c 0.0305,0.1434 0.1524,0.1326 0.2111,0.0129 0.6123,-1.4332 1.1041,-2.9068 1.8557,-4.2426 0.3479,-0.6403 0.7415,-1.2203 1.2009,-1.8048 0.0907,-0.0924 0.2024,-0.1419 0.2922,-0.1412 0.1082,8e-4 0.1842,0.0748 0.1523,0.2347 z" />
</svg>
