<?xml version="1.0" encoding="UTF-8" standalone="no"?>
<svg
   xmlns:dc="http://purl.org/dc/elements/1.1/"
   xmlns:cc="http://creativecommons.org/ns#"
   xmlns:rdf="http://www.w3.org/1999/02/22-rdf-syntax-ns#"
   xmlns:svg="http://www.w3.org/2000/svg"
   xmlns="http://www.w3.org/2000/svg"
   viewBox="0 0 95.039703 35.999699"
   id="svg2"
   height="50"
   width="132"
   version="1.1">
  <metadata
     id="metadata19">
    <rdf:RDF>
      <cc:Work
         rdf:about="">
        <dc:format>image/svg+xml</dc:format>
        <dc:type
           rdf:resource="http://purl.org/dc/dcmitype/StillImage" />
      </cc:Work>
    </rdf:RDF>
  </metadata>
  <defs
     id="defs17" />
  <g
     id="Layer1000">
    <path
       id="path5"
       style="fill:#b3b3b3;fill-rule:evenodd"
       d="m 91.6566,12.1719 1.4534,0 0,-11.968 -1.4534,0 0,11.968 z M 62.6839,6.0943 c 0,3.524 2.6048,6.2819 6.0947,6.2819 3.5071,0 6.0947,-2.7579 6.0947,-6.2819 0,-3.4219 -2.5876,-6.0947 -6.0947,-6.0947 -3.4899,0 -6.0947,2.6728 -6.0947,6.0947 z m 1.4453,0.0042 c 0,-2.6986 1.9833,-4.7633 4.6494,-4.7633 2.6824,0 4.6495,2.0647 4.6495,4.7633 0,2.7962 -1.9671,4.942 -4.6495,4.942 -2.6661,0 -4.6494,-2.1458 -4.6494,-4.942 z m -7.575,6.0734 1.4534,0 0,-11.968 -1.4534,0 0,11.968 z m -11.963,0 1.3982,0 0,-5.1565 1.9554,0 2.6899,5.1565 1.6301,0 -2.9655,-5.4515 C 50.6612,6.3459 51.305,4.86 51.305,3.5407 c 0,-2.7496 -1.7599,-3.3368 -4.6966,-3.3368 l -2.0172,0 0,11.968 z m 1.3982,-6.3629 0,-4.2963 1.08,0 c 1.4221,0 2.7736,0.1639 2.7736,2.062 0,1.8981 -1.3143,2.2343 -2.761,2.2343 l -1.0926,0 z m -12.8512,6.3629 1.4503,0 0,-4.9668 1.7181,0 c 2.1281,0 3.7241,-1.2811 3.7241,-3.5113 0,-2.2131 -1.5961,-3.4899 -3.7241,-3.4899 l -3.1684,0 0,11.968 z m 1.4503,-6.231 0,-4.4356 1.7757,0 c 1.5832,0 2.2194,1.2575 2.2194,2.1581 0,0.9005 -0.6366,2.2775 -2.2365,2.2775 l -1.7586,0 z m -16.0275,6.231 1.3917,0 1.3927,-3.8562 4.681,0.0018 1.3957,3.8544 1.4365,0 -4.3923,-11.968 -1.5131,0 -4.3922,11.968 z M 21.7627,7.0888 23.6822,1.8291 25.626,7.08 21.7627,7.0888 Z m 64.038,17.4434 1.2313,0 0,-7.6545 5.2693,7.6545 0.9034,0 0,-9.6485 -1.0682,1e-4 0,7.6619 -5.2165,-7.6619 -1.1193,0 0,9.6484 z m -11.132,0 c 1.5995,0 2.9278,-0.6539 3.8088,-1.4278 l 0,-3.4846 -3.1871,0 0,0.9847 2.157,0 0,1.927 c -0.5836,0.58 -1.6536,1.0533 -2.738,1.0533 -2.3043,0 -3.7546,-1.6547 -3.7546,-3.8832 0,-2.1083 1.5045,-3.8563 3.6055,-3.8563 1.3419,0 2.1552,0.4403 2.8871,1.0675 l 0.6912,-0.8007 c -0.9488,-0.7873 -1.9382,-1.241 -3.5377,-1.241 -2.8463,0 -4.7575,2.2685 -4.7575,4.8305 0,2.6955 1.8434,4.8306 4.8253,4.8306 z m -13.0645,0 1.1766,0 0,-9.4982 -1.1766,0 0,9.4982 z m -24.2943,0 4.7042,0 0,-1.134 -3.6152,0 0,-3.2949 3.008,0 0,-1.0261 -3.008,0 0,-3.1042 3.4122,0 0,-1.0892 -4.5012,0 0,9.6484 z m -14.1134,0 2.2468,0 c 3.0324,0 4.7699,-2.1089 4.7699,-4.8242 0,-2.7429 -1.7376,-4.8242 -4.7699,-4.8242 l -2.2468,0 0,9.6484 z m 1.072,-1.1246 0,-7.4725 1.3728,0 c 1.8676,0 3.4174,1.5362 3.4174,3.848 0,2.2793 -1.55,3.6245 -3.4174,3.6245 l -1.3728,0 z m 24.3787,-0.9111 0.9229,-0.3837 c 0.3939,1.0382 1.2268,1.4264 1.9965,1.4264 0.9662,0 1.7522,-0.4631 1.7522,-1.4055 0,-1.6861 -1.6142,-1.8697 -2.5413,-2.4257 -1.1338,-0.68 -1.8513,-1.061 -1.8513,-2.5689 0,-0.402 0.1025,-0.7697 0.3074,-1.1008 0.5575,-0.9008 1.373,-1.1545 2.4023,-1.1545 1.4296,0 2.3779,0.702 2.674,1.6945 l -0.891,0.3953 c -0.5172,-0.8753 -0.9724,-1.1352 -1.8034,-1.1352 -0.8125,0 -1.5636,0.3375 -1.5636,1.2298 0,1.4622 1.7486,1.765 3.1164,2.6398 0.8115,0.4685 1.3428,1.271 1.3428,2.1998 0,0.8944 -0.3977,1.4643 -0.9372,1.9587 -0.4999,0.4581 -1.174,0.6657 -1.8401,0.6657 -1.5876,0 -2.4116,-0.4715 -3.0866,-2.0357 z m 30.9792,-10.3246 1.3982,0 0,-5.1565 1.9555,0 2.6898,5.1565 1.6301,0 -2.9655,-5.4515 c 1.362,-0.3745 2.0057,-1.8604 2.0057,-3.1797 0,-2.7496 -1.7599,-3.3368 -4.6966,-3.3368 l -2.0172,0 0,11.968 z m 1.3982,-6.3629 0,-4.2963 1.08,0 c 1.4221,0 2.7736,0.1639 2.7736,2.062 0,1.8981 -1.3143,2.2343 -2.761,2.2343 l -1.0926,0 z" />
    <path
       id="path7"
       style="fill:#b3b3b3;fill-rule:evenodd"
       d="m 0.1869,26.5133 94.6664,0 0,0.4842 -94.6664,0 0,-0.4842 z" />
    <path
       id="path9"
       style="fill:#b3b3b3;fill-rule:evenodd"
       d="m 0.1869,35.5153 94.6664,0 0,0.4843 -94.6664,0 0,-0.4843 z" />
    <path
       id="path11"
       style="fill:#b3b3b3;fill-rule:evenodd"
       d="m 6.5238,33.1307 0.4921,0 0,-0.5648 2.3887,0 0,0.5648 0.4921,0 0,-0.9499 -0.4921,0 0,-1.9257 -2.0146,0 -0.046,0.6111 c -0.0262,0.3012 -0.082,0.57 -0.1673,0.8062 -0.0853,0.2362 -0.1805,0.4057 -0.2855,0.5084 l -0.3674,0 0,0.9499 z m 45.5527,-2.427 c 0.3662,0 0.6631,0.2968 0.6631,0.663 0,0.3662 -0.2969,0.663 -0.6631,0.663 -0.3662,0 -0.663,-0.2968 -0.663,-0.663 0,-0.3662 0.2968,-0.663 0.663,-0.663 z m -25.4784,0 c 0.3662,0 0.663,0.2968 0.663,0.663 0,0.3662 -0.2968,0.663 -0.663,0.663 -0.3662,0 -0.663,-0.2968 -0.663,-0.663 0,-0.3662 0.2968,-0.663 0.663,-0.663 z m 2.2085,1.8622 0.5251,0 0,-1.6843 1.063,1.0732 0.0197,0 1.0237,-1.0732 0,1.6843 0.525,0 0,-2.3108 -0.4659,0 -1.0762,1.1451 -1.1353,-1.1451 -0.4791,0 0,2.3108 z m 6.6106,-0.5751 c -0.2187,0.1608 -0.5205,0.2413 -0.9056,0.2413 -0.2931,0 -0.5326,-0.0616 -0.7185,-0.1849 -0.186,-0.1232 -0.2898,-0.2927 -0.3117,-0.5083 l 2.2706,0 c 0.0218,-0.0787 0.0328,-0.1712 0.0328,-0.2773 0,-0.3116 -0.1313,-0.5657 -0.3938,-0.7625 -0.2624,-0.1969 -0.5884,-0.2953 -0.9777,-0.2953 -0.4726,0 -0.8444,0.1138 -1.1157,0.3415 -0.2712,0.2276 -0.4067,0.516 -0.4067,0.8652 0,0.3663 0.1442,0.659 0.433,0.8781 0.2888,0.2191 0.6715,0.3286 1.1484,0.3286 0.455,0 0.8247,-0.101 1.109,-0.303 L 35.4172,31.9908 Z M 34.387,30.5889 c 0.2537,0 0.4561,0.0548 0.607,0.1643 0.151,0.1095 0.233,0.2602 0.2461,0.4519 l -1.7915,0 c 0.0306,-0.1815 0.129,-0.3295 0.2952,-0.4442 0.1663,-0.1147 0.3807,-0.172 0.6432,-0.172 z M 38.9568,28.92 c -0.0875,0.0891 -0.1947,0.1489 -0.3216,0.1797 -0.1268,0.0309 -0.2932,0.0591 -0.4987,0.0848 -0.2056,0.0257 -0.3982,0.0693 -0.5775,0.1309 -0.7306,0.2397 -1.0959,0.861 -1.0959,1.864 0,0.445 0.14,0.7959 0.42,1.0527 0.2799,0.2567 0.6606,0.3851 1.1418,0.3851 0.4419,0 0.805,-0.1155 1.0894,-0.3466 0.2843,-0.2311 0.4265,-0.5109 0.4265,-0.8396 0,-0.3491 -0.1236,-0.6281 -0.3708,-0.837 -0.2471,-0.2088 -0.5807,-0.3132 -1.0007,-0.3132 -0.2493,0 -0.4823,0.0497 -0.6989,0.1489 -0.2165,0.0993 -0.373,0.2294 -0.4692,0.3903 l -0.0131,0 c 0.0525,-0.5854 0.3019,-0.9569 0.7481,-1.1143 0.1618,-0.0582 0.3522,-0.101 0.5709,-0.1284 0.2187,-0.0274 0.4025,-0.0616 0.5512,-0.1027 0.1488,-0.0411 0.2756,-0.1181 0.3807,-0.2311 L 38.9568,28.92 Z m -1.9359,2.3364 c 0.0481,-0.1609 0.1641,-0.2995 0.3477,-0.4159 0.1838,-0.1164 0.407,-0.1746 0.6694,-0.1746 0.2975,0 0.5294,0.0728 0.6957,0.2183 0.1662,0.1454 0.2493,0.3346 0.2493,0.5674 0,0.2191 -0.0908,0.4039 -0.2723,0.5546 -0.1816,0.1506 -0.4145,0.2259 -0.6988,0.2259 -0.2932,0 -0.5317,-0.089 -0.7154,-0.267 -0.1837,-0.178 -0.2756,-0.4143 -0.2756,-0.7087 z m 5.7772,0.7344 c -0.2187,0.1608 -0.5205,0.2413 -0.9056,0.2413 -0.2931,0 -0.5326,-0.0616 -0.7186,-0.1849 -0.1859,-0.1232 -0.2897,-0.2927 -0.3116,-0.5083 l 2.2706,0 c 0.0218,-0.0787 0.0328,-0.1712 0.0328,-0.2773 0,-0.3116 -0.1313,-0.5657 -0.3938,-0.7625 -0.2624,-0.1969 -0.5884,-0.2953 -0.9777,-0.2953 -0.4726,0 -0.8444,0.1138 -1.1157,0.3415 -0.2712,0.2276 -0.4068,0.516 -0.4068,0.8652 0,0.3663 0.1443,0.659 0.4331,0.8781 0.2888,0.2191 0.6715,0.3286 1.1483,0.3286 0.4551,0 0.8248,-0.101 1.1091,-0.303 l -0.1641,-0.3234 z m -1.0302,-1.4019 c 0.2537,0 0.4561,0.0548 0.607,0.1643 0.151,0.1095 0.233,0.2602 0.2461,0.4519 l -1.7915,0 c 0.0306,-0.1815 0.129,-0.3295 0.2952,-0.4442 0.1663,-0.1147 0.3807,-0.172 0.6432,-0.172 z m 4.3073,1.977 0.525,0 0,-2.3108 -2.054,0 -0.0525,0.7189 c -0.0132,0.202 -0.0405,0.3809 -0.0821,0.5366 -0.0415,0.1558 -0.0874,0.2765 -0.1378,0.362 -0.0503,0.0856 -0.1072,0.1541 -0.1706,0.2055 -0.0634,0.0513 -0.1204,0.0847 -0.1706,0.1001 -0.0503,0.0154 -0.1017,0.0214 -0.1542,0.018 l 0.0394,0.4005 c 0.1311,0 0.2471,-0.0112 0.3477,-0.0334 0.1006,-0.0222 0.1991,-0.0659 0.2954,-0.131 0.0962,-0.065 0.1782,-0.1531 0.246,-0.2644 0.0678,-0.1113 0.128,-0.2602 0.1805,-0.4468 0.0525,-0.1865 0.0918,-0.4082 0.1181,-0.6649 l 0.0329,-0.3903 1.0368,0 0,1.9 z m 1.6429,0 0.9976,0 c 0.4287,0 0.7415,-0.0787 0.9384,-0.2363 0.1968,-0.1574 0.2953,-0.3526 0.2953,-0.5854 0,-0.2327 -0.0897,-0.4236 -0.2691,-0.5725 -0.1794,-0.1489 -0.4791,-0.2233 -0.899,-0.2233 l -0.5381,0 0,-0.6933 -0.5251,0 0,2.3108 z m 0.9647,-1.2324 c 0.4725,0 0.7087,0.1421 0.7087,0.4262 0,0.2807 -0.2384,0.4211 -0.7152,0.4211 l -0.4331,0 0,-0.8473 0.4396,0 z m 5.9697,-0.5906 c 0.2756,-0.113 0.5469,-0.1694 0.8137,-0.1694 0.2713,0 0.4507,0.0599 0.5381,0.1797 0.0875,0.1198 0.1313,0.303 0.1313,0.5494 -0.1749,-0.0992 -0.42,-0.1489 -0.735,-0.1489 -0.3281,0 -0.596,0.0651 -0.8038,0.1952 -0.2078,0.13 -0.3118,0.3098 -0.3118,0.5391 0,0.2191 0.0832,0.3928 0.2494,0.5212 0.1662,0.1284 0.385,0.1926 0.6562,0.1926 0.4025,0 0.7176,-0.1113 0.945,-0.3337 l 0,0.2978 0.4987,0 0,-1.4173 c 0,-0.3149 -0.0875,-0.5512 -0.2624,-0.7086 -0.1751,-0.1575 -0.466,-0.2362 -0.8728,-0.2362 -0.3676,0 -0.6956,0.0702 -0.9844,0.2105 l 0.1378,0.3286 z m 0.7219,1.4892 c -0.1663,0 -0.2964,-0.0325 -0.3904,-0.0975 -0.0942,-0.0651 -0.1411,-0.1541 -0.1411,-0.2671 0,-0.1233 0.0612,-0.2174 0.1837,-0.2824 0.1224,-0.0651 0.2712,-0.0976 0.4462,-0.0976 0.2581,0 0.479,0.0514 0.6628,0.1541 l 0,0.2927 c -0.2143,0.1985 -0.4681,0.2978 -0.7612,0.2978 z m 4.898,-1.977 -0.6891,0 -1.2469,1.1297 1.3322,1.1811 0.7284,0 -1.4174,-1.2068 1.2928,-1.104 z m -2.5857,2.3108 0.5251,0 0,-2.3108 -0.5251,0 0,2.3108 z m 5.7118,-0.6316 c -0.2231,0.1985 -0.5053,0.2978 -0.8466,0.2978 -0.3019,0 -0.5545,-0.0753 -0.758,-0.2259 -0.2033,-0.1507 -0.3051,-0.3492 -0.3051,-0.5957 0,-0.2362 0.0995,-0.4322 0.2986,-0.588 0.1991,-0.1557 0.4364,-0.2336 0.712,-0.2336 0.3412,0 0.6235,0.0804 0.8466,0.2413 l 0.2428,-0.3234 c -0.2582,-0.202 -0.6453,-0.303 -1.1615,-0.303 -0.4288,0 -0.7853,0.1164 -1.0697,0.3492 -0.2844,0.2327 -0.4265,0.5186 -0.4265,0.8575 0,0.3629 0.1454,0.6547 0.4363,0.8755 0.291,0.2208 0.6726,0.3312 1.1451,0.3312 0.2319,0 0.4484,-0.0334 0.6497,-0.1001 0.2013,-0.0668 0.3631,-0.1618 0.4856,-0.285 l -0.2493,-0.2978 z m 3.4345,0.0565 c -0.2188,0.1608 -0.5205,0.2413 -0.9056,0.2413 -0.2931,0 -0.5327,-0.0616 -0.7186,-0.1849 -0.1859,-0.1232 -0.2898,-0.2927 -0.3117,-0.5083 l 2.2706,0 c 0.0219,-0.0787 0.0328,-0.1712 0.0328,-0.2773 0,-0.3116 -0.1312,-0.5657 -0.3937,-0.7625 -0.2625,-0.1969 -0.5885,-0.2953 -0.9778,-0.2953 -0.4725,0 -0.8444,0.1138 -1.1156,0.3415 -0.2713,0.2276 -0.4069,0.516 -0.4069,0.8652 0,0.3663 0.1444,0.659 0.4331,0.8781 0.2888,0.2191 0.6716,0.3286 1.1484,0.3286 0.455,0 0.8247,-0.101 1.1091,-0.303 L 66.833,31.9908 Z m -1.0302,-1.4019 c 0.2537,0 0.456,0.0548 0.607,0.1643 0.1509,0.1095 0.2329,0.2602 0.246,0.4519 l -1.7914,0 c 0.0305,-0.1815 0.1289,-0.3295 0.2952,-0.4442 0.1663,-0.1147 0.3806,-0.172 0.6432,-0.172 z m 4.5566,1.3454 c -0.2231,0.1985 -0.5053,0.2978 -0.8466,0.2978 -0.3018,0 -0.5545,-0.0753 -0.7579,-0.2259 -0.2034,-0.1507 -0.3051,-0.3492 -0.3051,-0.5957 0,-0.2362 0.0994,-0.4322 0.2985,-0.588 0.1991,-0.1557 0.4365,-0.2336 0.712,-0.2336 0.3413,0 0.6235,0.0804 0.8466,0.2413 l 0.2428,-0.3234 c -0.2581,-0.202 -0.6453,-0.303 -1.1615,-0.303 -0.4287,0 -0.7853,0.1164 -1.0697,0.3492 -0.2844,0.2327 -0.4265,0.5186 -0.4265,0.8575 0,0.3629 0.1454,0.6547 0.4363,0.8755 0.291,0.2208 0.6727,0.3312 1.1451,0.3312 0.2319,0 0.4485,-0.0334 0.6498,-0.1001 0.2012,-0.0668 0.363,-0.1618 0.4855,-0.285 l -0.2493,-0.2978 z m 3.3755,0 c -0.2231,0.1985 -0.5053,0.2978 -0.8465,0.2978 -0.3019,0 -0.5546,-0.0753 -0.758,-0.2259 -0.2034,-0.1507 -0.3051,-0.3492 -0.3051,-0.5957 0,-0.2362 0.0994,-0.4322 0.2985,-0.588 0.1992,-0.1557 0.4365,-0.2336 0.712,-0.2336 0.3413,0 0.6235,0.0804 0.8465,0.2413 l 0.2429,-0.3234 c -0.2581,-0.202 -0.6453,-0.303 -1.1615,-0.303 -0.4288,0 -0.7853,0.1164 -1.0697,0.3492 -0.2844,0.2327 -0.4265,0.5186 -0.4265,0.8575 0,0.3629 0.1454,0.6547 0.4364,0.8755 0.2909,0.2208 0.6726,0.3312 1.1451,0.3312 0.2318,0 0.4484,-0.0334 0.6497,-0.1001 0.2012,-0.0668 0.3631,-0.1618 0.4856,-0.285 l -0.2494,-0.2978 z m 3.789,-1.6792 -0.5973,0 -0.6825,1.4635 c -0.0525,0.1232 -0.0983,0.2413 -0.1377,0.3543 -0.1007,-0.202 -0.1596,-0.3184 -0.1772,-0.3492 l -0.8662,-1.4686 -0.63,0 1.4175,2.3108 -0.0657,0.1232 c -0.1006,0.1848 -0.2002,0.3184 -0.2986,0.4005 -0.0984,0.0822 -0.2089,0.1233 -0.3313,0.1233 -0.0788,0 -0.1882,-0.0257 -0.3282,-0.077 l -0.1705,0.3132 c 0.1836,0.0959 0.3695,0.1438 0.5577,0.1438 0.2187,0 0.4091,-0.0711 0.5709,-0.2131 0.162,-0.1421 0.3478,-0.4134 0.5578,-0.8139 l 1.1813,-2.3108 z m 0.8686,0.4878 c 0.2757,-0.113 0.5469,-0.1694 0.8137,-0.1694 0.2713,0 0.4506,0.0599 0.5381,0.1797 0.0875,0.1198 0.1313,0.303 0.1313,0.5494 -0.175,-0.0992 -0.4199,-0.1489 -0.735,-0.1489 -0.328,0 -0.596,0.0651 -0.8039,0.1952 -0.2077,0.13 -0.3116,0.3098 -0.3116,0.5391 0,0.2191 0.0831,0.3928 0.2493,0.5212 0.1662,0.1284 0.385,0.1926 0.6562,0.1926 0.4025,0 0.7175,-0.1113 0.945,-0.3337 l 0,0.2978 0.4987,0 0,-1.4173 c 0,-0.3149 -0.0875,-0.5512 -0.2624,-0.7086 -0.1751,-0.1575 -0.466,-0.2362 -0.8728,-0.2362 -0.3675,0 -0.6956,0.0702 -0.9844,0.2105 l 0.1378,0.3286 z m 0.7218,1.4892 c -0.1662,0 -0.2963,-0.0325 -0.3903,-0.0975 -0.0942,-0.0651 -0.1412,-0.1541 -0.1412,-0.2671 0,-0.1233 0.0613,-0.2174 0.1838,-0.2824 0.1225,-0.0651 0.2713,-0.0976 0.4462,-0.0976 0.2581,0 0.479,0.0514 0.6628,0.1541 l 0,0.2927 c -0.2143,0.1985 -0.4681,0.2978 -0.7613,0.2978 z m 2.3124,1.3608 0.5251,0 0,-1.1349 c 0.2056,0.1062 0.4834,0.1592 0.8333,0.1592 0.455,0 0.8247,-0.1181 1.1091,-0.3543 0.2843,-0.2362 0.4265,-0.5323 0.4265,-0.8884 0,-0.3457 -0.1236,-0.6272 -0.3707,-0.8446 -0.2472,-0.2174 -0.5786,-0.3261 -0.9942,-0.3261 -0.2012,0 -0.3927,0.0299 -0.5742,0.0898 -0.1816,0.06 -0.3249,0.1378 -0.4298,0.2337 l 0,-0.2722 -0.5251,0 0,3.3378 z m 1.3781,-3.004 c 0.2975,0 0.5316,0.0736 0.7023,0.2208 0.1705,0.1472 0.2559,0.3406 0.2559,0.5803 0,0.2465 -0.093,0.4484 -0.2789,0.6059 -0.186,0.1574 -0.4343,0.2362 -0.7448,0.2362 -0.2975,0 -0.5601,-0.0599 -0.7875,-0.1797 l 0,-1.1451 c 0.2187,-0.2123 0.5031,-0.3184 0.853,-0.3184 z m 2.4436,1.977 0.9516,0 c 0.4288,0 0.7404,-0.0787 0.9352,-0.2363 0.1946,-0.1574 0.2919,-0.3526 0.2919,-0.5854 0,-0.2327 -0.0896,-0.4236 -0.2689,-0.5725 -0.1795,-0.1489 -0.4791,-0.2233 -0.8991,-0.2233 l -0.4856,0 0,-0.6933 -0.5251,0 0,2.3108 z m 2.7431,0 0.525,0 0,-2.3108 -0.525,0 0,2.3108 z m -1.8309,-1.2324 c 0.4725,0 0.7087,0.1421 0.7087,0.4262 0,0.1403 -0.0557,0.2456 -0.1673,0.3158 -0.1115,0.0701 -0.2943,0.1053 -0.5479,0.1053 l -0.3806,0 0,-0.8473 0.3871,0 z m -78.3113,-0.3081 0.0328,-0.3852 0.9976,0 0,1.5406 -1.4306,0 C 7.5278,32.0986 7.6065,31.9531 7.6852,31.7442 7.764,31.5354 7.8187,31.2958 7.8493,31.0254 Z m 5.121,0.9654 c -0.2187,0.1608 -0.5205,0.2413 -0.9056,0.2413 -0.2931,0 -0.5326,-0.0616 -0.7185,-0.1849 -0.186,-0.1232 -0.2898,-0.2927 -0.3117,-0.5083 l 2.2706,0 c 0.0218,-0.0787 0.0328,-0.1712 0.0328,-0.2773 0,-0.3116 -0.1313,-0.5657 -0.3938,-0.7625 -0.2625,-0.1969 -0.5884,-0.2953 -0.9777,-0.2953 -0.4726,0 -0.8444,0.1138 -1.1157,0.3415 -0.2712,0.2276 -0.4068,0.516 -0.4068,0.8652 0,0.3663 0.1443,0.659 0.433,0.8781 0.2889,0.2191 0.6716,0.3286 1.1485,0.3286 0.4549,0 0.8246,-0.101 1.109,-0.303 l -0.1641,-0.3234 z m -1.0302,-1.4019 c 0.2537,0 0.456,0.0548 0.607,0.1643 0.151,0.1095 0.2329,0.2602 0.246,0.4519 l -1.7914,0 c 0.0305,-0.1815 0.129,-0.3295 0.2952,-0.4442 0.1663,-0.1147 0.3807,-0.172 0.6432,-0.172 z m 4.8717,-0.3338 -0.6891,0 -1.2469,1.1297 1.3322,1.1811 0.7284,0 -1.4174,-1.2068 1.2928,-1.104 z m -2.5857,2.3108 0.5251,0 0,-2.3108 -0.5251,0 0,2.3108 z m 3.2444,-1.1554 c 0,0.3492 0.1454,0.6376 0.4363,0.8653 0.291,0.2276 0.6705,0.3414 1.1386,0.3414 0.4681,0 0.8476,-0.1138 1.1386,-0.3414 0.2909,-0.2277 0.4363,-0.5161 0.4363,-0.8653 0,-0.3492 -0.1454,-0.6376 -0.4363,-0.8652 -0.291,-0.2277 -0.6705,-0.3415 -1.1386,-0.3415 -0.4681,0 -0.8476,0.1138 -1.1386,0.3415 -0.2909,0.2276 -0.4363,0.516 -0.4363,0.8652 z m 0.5577,0 c 0,-0.2431 0.0963,-0.4408 0.2887,-0.5931 0.1926,-0.1523 0.4354,-0.2285 0.7285,-0.2285 0.2974,0 0.5414,0.077 0.7316,0.2311 0.1904,0.154 0.2855,0.3509 0.2855,0.5905 0,0.2431 -0.0951,0.4408 -0.2855,0.5931 -0.1902,0.1523 -0.4342,0.2285 -0.7316,0.2285 -0.2974,0 -0.5415,-0.077 -0.7317,-0.2311 -0.1903,-0.154 -0.2855,-0.3509 -0.2855,-0.5905 z m 3.5198,2.1824 0.5251,0 0,-1.1349 c 0.2056,0.1062 0.4834,0.1592 0.8334,0.1592 0.4549,0 0.8246,-0.1181 1.109,-0.3543 0.2844,-0.2362 0.4265,-0.5323 0.4265,-0.8884 0,-0.3457 -0.1236,-0.6272 -0.3707,-0.8446 -0.2472,-0.2174 -0.5786,-0.3261 -0.9942,-0.3261 -0.2013,0 -0.3927,0.0299 -0.5742,0.0898 -0.1816,0.06 -0.3249,0.1378 -0.4298,0.2337 l 0,-0.2722 -0.5251,0 0,3.3378 z m 1.3781,-3.004 c 0.2975,0 0.5316,0.0736 0.7023,0.2208 0.1705,0.1472 0.2559,0.3406 0.2559,0.5803 0,0.2465 -0.093,0.4484 -0.2789,0.6059 -0.186,0.1574 -0.4343,0.2362 -0.7448,0.2362 -0.2976,0 -0.5601,-0.0599 -0.7875,-0.1797 l 0,-1.1451 c 0.2187,-0.2123 0.5031,-0.3184 0.853,-0.3184 z" />
    <path
       id="path13"
       style="fill:#b3b3b3;fill-rule:evenodd"
       d="m 17.4198,24.5323 -0.6536,-0.6495 0.8275,-0.8328 0.2589,0.2574 -0.2746,-1.214 -1.5306,-1.5209 0.9664,-0.9725 -0.1745,-0.7714 -1.2654,1.2734 -0.4705,0.4735 0.4735,0.4705 1.5433,1.5335 -0.8275,0.8327 -1.5433,-1.5335 -0.4735,-0.4705 -0.4704,0.4735 -1.8145,1.8259 0.183,0.7629 2.1049,-2.1183 2.1939,2.1801 0.947,0 z M 4.3481,11.5429 2.8019,13.0989 2.528,14.3215 4.3511,12.4869 7.4377,15.554 6.798,16.1977 4.8286,14.2407 4.3551,13.7702 l -0.4705,0.4735 -1.729,1.74 -0.2739,1.2226 0.0489,-0.0492 0.8676,0.8622 -0.46,0.4629 -0.46,0.463 -0.3158,-0.3137 -0.1723,0.7697 0.0176,0.0175 -0.0279,0.028 -0.391,1.7454 0.4258,0.4232 -0.6722,0.6764 -0.2738,1.2226 0.0868,-0.0874 0.926,0.9202 -0.1572,0.1582 0.0271,0.0269 0.8872,0 1.0491,-1.0558 0.5539,0.5505 0.4735,0.4705 0.4705,-0.4735 0.6242,-0.6282 0.5002,0.497 0.408,0.4055 0.1749,-0.7673 -0.1124,-0.1117 -0.5002,-0.497 0.4601,-0.4631 0.4602,-0.463 0.0344,0.0342 0.3005,-1.3182 -0.3379,0.34 -0.5539,-0.5504 0.6242,-0.6282 0.374,0.3716 L 7.4167,19.4779 7.3383,19.4 7.4631,19.2745 7.9121,17.3048 7.2715,16.6682 8.3816,15.5511 6.8383,14.0175 7.6971,13.1533 9.2089,14.6557 c 0.3597,-0.362 0.7192,-0.7239 1.0789,-1.0858 l 0.926,0.9201 -1.1101,1.1172 1.7956,1.7844 -0.8587,0.8641 -0.469,-0.466 0.2964,1.2355 1.4665,1.4573 -0.8998,0.9055 0.183,0.7629 1.6608,-1.6714 -1.7643,-1.7532 0.8587,-0.8642 1.7643,1.7533 2.346,-2.3609 -0.1745,-0.7714 -2.1745,2.1883 -3.0866,-3.0672 0.6397,-0.6437 2.4429,2.4275 1.9412,-1.9535 -0.1745,-0.7713 -1.7697,1.7809 -1.9694,-1.957 0.8622,-0.8677 1.1017,1.0948 1.0949,-1.1017 0.571,0.5674 -0.385,-1.7016 -0.189,0.1902 -1.1018,-1.0948 -1.0948,1.1017 -0.926,-0.9201 1.0947,-1.1017 L 12.1583,9.6327 13.0786,8.7066 14.106,9.7275 14.6552,9.1748 14.4807,8.4034 14.103,8.7835 13.5491,8.2331 14.1733,7.6049 14.3367,7.7673 14.102,6.7297 13.6998,7.1344 13.0756,7.7626 12.0753,6.7685 13.7333,5.1 13.5588,4.3286 11.6018,6.2981 11.0479,5.7476 C 11.8168,4.9738 12.5857,4.2 13.3546,3.4262 L 13.1924,2.7092 13.159,2.6761 C 12.6624,3.1759 12.1658,3.6757 11.6691,4.1755 L 10.7029,3.2153 12.6752,1.2305 12.824,1.0808 12.7413,0.7154 12.6361,0.2507 12.5891,0.2039 11.6447,0.2065 12.2017,0.76 9.1346,3.8466 8.4909,3.207 10.9184,0.7641 10.3609,0.2101 9.4166,0.2128 9.9744,0.7671 8.0174,2.7365 7.1498,1.8743 7.7741,1.246 8.2446,0.7725 7.7711,0.302 7.6862,0.2176 6.7419,0.2203 7.3006,0.7755 6.6763,1.4038 6.048,0.7795 6.6033,0.2207 5.6864,0.2232 5.4779,1.1539 6.2058,1.8773 5.7458,2.3402 5.2857,2.8032 5.1407,2.6591 4.7829,4.2562 5.2887,3.7472 6.1563,4.6093 4.281,6.4966 4.0786,7.3998 4.2023,7.5227 4.6728,7.0493 6.6298,5.0798 7.2735,5.7195 4.2064,8.8061 3.8442,8.4462 3.6718,9.2158 4.2094,9.75 4.6799,9.2766 6.6522,7.2918 7.4278,8.0624 7.6024,7.295 7.1227,6.8183 7.8855,6.0506 8.0087,5.509 7.1003,4.6064 l 0.4601,-0.463 0.46,-0.4629 1.0074,1.001 0.2188,-6e-4 0.9858,-0.9921 0.9662,0.9601 -0.8764,0.882 0.1373,0.5731 0.6718,0.6675 -0.4125,0.4151 0.1828,0.763 0.243,-0.2445 0.4602,-0.4631 1.0003,0.9941 -0.9203,0.9261 -0.5001,-0.497 -0.1466,-0.1457 0.2317,0.9675 0.2007,0.8378 0.2173,-0.2186 0.5539,0.5504 -0.5574,0.5609 0.3379,1.4104 0.5243,0.521 -0.8622,0.8677 -0.926,-0.9202 0.4568,-0.4597 -0.9409,-10e-5 -1.0683,1.075 -1.082,-1.0751 -0.1986,0 -0.4823,0 -0.0873,-0.0868 -0.0861,0.0867 -0.0927,0 0.0466,0.0464 -0.8587,0.8641 -2.0167,-2.004 z m 4.6681,5.2216 0.5224,-0.0013 -0.2622,-0.2606 -0.2602,0.2619 z m 4.3757,7.7677 1.7935,0 -0.4289,-0.4262 -0.4735,-0.4705 -0.4705,0.4735 -0.4206,0.4232 z M 3.3685,10.5696 3.3608,10.604 3.3819,10.5828 3.3685,10.5696 Z M 7.3153,8.5569 5.2068,10.6788 6.5327,11.9963 6.7073,11.2288 6.1508,10.6758 7.0358,9.7851 7.3153,8.5569 Z m 6.8034,5.2134 0.6244,-0.6283 -0.6283,-0.6244 -0.6243,0.6283 0.6282,0.6244 z M 6.2192,2.8107 6.6793,2.3478 7.5469,3.21 7.0869,3.6729 6.6268,4.1359 5.7592,3.2737 6.2192,2.8107 Z M 5.8669,21.9886 5.4067,22.4517 4.8528,21.9013 4.3793,21.4308 3.9088,21.9043 3.2846,22.5325 2.3586,21.6123 2.9829,20.984 3.4534,20.5105 2.9799,20.04 2.3516,19.4157 l 0.4601,-0.463 0.46,-0.4629 0.6283,0.6243 0.4735,0.4705 0.4705,-0.4735 0.6243,-0.6283 0.926,0.9202 -0.6242,0.6282 -0.4705,0.4735 0.4735,0.4705 0.5539,0.5504 -0.4601,0.463 z m 0.9979,-3.0591 0.8622,-0.8676 -0.926,-0.9202 -0.8622,0.8677 0.926,0.9201 z m -0.5373,-2.2583 -1.9694,-1.957 -1.957,1.9694 0.8676,0.8622 0.6244,-0.6283 0.4705,-0.4735 0.4735,0.4705 0.6283,0.6244 0.8621,-0.8677 z M 4.3666,17.388 3.7422,18.0163 4.3705,18.6406 4.9949,18.0123 4.3666,17.388 Z M 4.9362,22.9252 4.312,23.5534 3.7581,23.003 4.3823,22.3748 4.9362,22.9252 Z m -2.1221,0.0807 -0.8622,0.8677 -0.926,-0.9202 0.8622,-0.8676 0.926,0.9201 z M 1.2568,20.5175 1.8812,19.8892 2.5094,20.5135 1.8851,21.1418 1.2568,20.5175 Z" />
  </g>
</svg>
